<svg xmlns="http://www.w3.org/2000/svg" xmlns:xlink="http://www.w3.org/1999/xlink" width="500" zoomAndPan="magnify" viewBox="0 0 375 374.999991" height="500" preserveAspectRatio="xMidYMid meet" version="1.0"><defs><clipPath id="4768e10125"><path d="M 106 42.417969 L 249.75 42.417969 L 249.75 330 L 106 330 Z M 106 42.417969 " clip-rule="nonzero"/></clipPath></defs><path fill="#38b6ff" d="M 198.066406 254.253906 C 184.605469 267.539062 151.421875 282.175781 144.277344 282.238281 C 144.277344 282.238281 139.667969 285.570312 137.949219 289.90625 C 137.949219 289.90625 132.867188 300.414062 134.4375 303.363281 C 134.4375 303.363281 137.949219 309.941406 137.949219 311.210938 C 137.949219 311.210938 137.652344 317.929688 128.230469 315.355469 C 128.230469 315.355469 117.316406 305.679688 117.019531 299.847656 C 117.019531 299.847656 119.113281 294.09375 112.832031 289.90625 C 112.832031 289.90625 99.75 274.730469 111.636719 273.160156 C 111.636719 273.160156 126.140625 273.898438 131.519531 269.753906 C 131.519531 269.753906 180.605469 233.042969 181.578125 224.597656 C 181.578125 224.597656 182.363281 219.484375 175.253906 212.53125 C 174.167969 211.03125 174.507812 220.082031 172.5625 217.390625 C 172.5625 217.390625 174.507812 225.464844 169.871094 221.429688 C 169.871094 221.429688 163.816406 222.25 161.722656 217.390625 C 161.722656 217.390625 160.078125 218.066406 159.179688 215.972656 C 159.179688 215.972656 156.640625 209.898438 159.179688 202.996094 C 159.179688 202.996094 160.527344 186.273438 159.179688 182.285156 C 159.179688 182.285156 157.6875 178.757812 157.535156 176.507812 C 157.535156 176.507812 148.5625 175.632812 145.265625 171.234375 C 144.390625 170.058594 143.027344 169.34375 141.5625 169.285156 C 137.421875 169.117188 129.976562 167.761719 129.652344 160.277344 C 129.652344 160.277344 129.652344 156.488281 128.902344 154.507812 C 128.171875 152.582031 127.707031 150.5625 127.523438 148.511719 C 127.496094 148.179688 127.472656 147.832031 127.449219 147.472656 C 127.332031 145.789062 127.511719 144.097656 127.976562 142.476562 C 128.75 139.8125 130.023438 135.324219 130.625 132.617188 C 130.625 132.617188 130.847656 121.414062 132.640625 117.859375 C 132.640625 117.859375 135.257812 112.46875 133.390625 109.125 C 133.390625 109.125 127.859375 94.261719 130.625 88.886719 C 133.390625 83.511719 132.34375 82.441406 133.390625 80.585938 C 133.390625 80.585938 145.050781 67.207031 163.21875 72.363281 C 163.21875 72.363281 169.164062 75.589844 173.882812 76.515625 C 176.097656 76.945312 178.375 76.1875 179.890625 74.523438 C 181.710938 72.535156 184.863281 69.339844 187.589844 67.921875 C 187.589844 67.921875 191.550781 66.800781 193.195312 67.921875 C 193.195312 67.921875 188.953125 55.394531 195.214844 52.628906 C 195.214844 52.628906 193.78125 49.25 197.644531 45.980469 C 200.414062 43.636719 204.125 42.742188 207.660156 43.5625 C 213.507812 44.90625 225.101562 46.980469 230.683594 43.914062 C 230.683594 43.914062 232.910156 51.316406 226.402344 53.867188 C 226.402344 53.867188 230.484375 60.632812 228.441406 62.929688 C 228.441406 62.929688 230.648438 67.914062 232.484375 68.882812 C 233.019531 69.164062 233.273438 69.792969 233.085938 70.367188 C 232.90625 70.917969 232.40625 71.433594 231.148438 71.433594 C 231.148438 71.433594 229.300781 72.960938 230.226562 73.621094 C 230.226562 73.621094 231.875 75.480469 230.09375 75.945312 C 230.09375 75.945312 231.742188 78.003906 230.09375 78.730469 C 230.09375 78.730469 232.140625 82.582031 229.363281 83.511719 C 229.363281 83.511719 222.394531 83.839844 221.199219 85.699219 L 219.609375 87.691406 C 219.609375 87.691406 222.59375 90.144531 222.59375 93.066406 L 222.59375 95.984375 C 222.59375 95.984375 232.558594 93.035156 228.839844 109.125 C 228.839844 109.125 226.9375 113.898438 228.277344 117.464844 C 228.382812 117.734375 228.464844 118.011719 228.527344 118.292969 C 229.335938 121.945312 234.839844 147.648438 233.0625 152.480469 C 233.0625 152.480469 243.917969 173.195312 241.082031 176.507812 C 241.082031 176.507812 240.988281 183.863281 243.917969 186.25 C 243.917969 186.25 246.019531 187.914062 247.453125 189.632812 C 248.300781 190.648438 248.742188 191.945312 248.6875 193.265625 C 248.640625 194.433594 248.570312 196.125 248.519531 197.335938 C 248.480469 198.320312 248.113281 199.265625 247.472656 200.019531 C 245.234375 202.640625 239.960938 208.425781 239.664062 205.074219 C 239.664062 205.074219 231.476562 207.15625 233.0625 202.996094 C 233.0625 202.996094 239.945312 200.25 238.054688 196.089844 C 238.054688 196.089844 232.234375 189.546875 234.292969 187.238281 C 234.292969 187.238281 229.238281 183.792969 228.839844 179.34375 C 228.839844 179.34375 224.410156 174.507812 222.800781 175.152344 C 222.683594 175.199219 222.601562 175.300781 222.574219 175.421875 C 222.316406 176.40625 220.820312 182.285156 219.609375 182.285156 C 219.609375 182.285156 220.679688 194.699219 220.460938 201.992188 C 220.328125 206.039062 221.050781 210.074219 222.585938 213.824219 C 228.558594 228.429688 240.5 263.578125 228.839844 288.0625 C 228.839844 288.0625 223.777344 302.347656 225.089844 306.308594 C 226.402344 310.269531 229.75 313.710938 233.0625 315.355469 C 233.0625 315.355469 242.25 319.765625 245.496094 320.960938 C 245.496094 320.960938 249.785156 326.195312 243.917969 328.4375 C 238.054688 330.679688 224.070312 327.089844 219.609375 328.4375 C 219.609375 328.4375 203.183594 332.550781 203.933594 325.671875 C 203.933594 325.671875 209.089844 304.738281 207.519531 298.085938 C 207.519531 298.085938 205.128906 278.125 207.519531 269.753906 C 207.519531 269.753906 201.765625 262.480469 198.066406 254.253906 Z M 198.066406 254.253906 " fill-opacity="1" fill-rule="evenodd"/><g clip-path="url(#4768e10125)"><path fill="#38b6ff" d="M 230.679688 73.09375 C 230.703125 73.113281 230.726562 73.136719 230.746094 73.160156 C 230.746094 73.160156 231.09375 73.546875 231.339844 74.042969 C 231.539062 74.4375 231.660156 74.890625 231.605469 75.296875 C 231.558594 75.632812 231.417969 75.96875 231.089844 76.234375 C 231.316406 76.667969 231.542969 77.234375 231.523438 77.761719 C 231.503906 78.210938 231.359375 78.644531 230.972656 78.996094 C 231.261719 79.71875 231.660156 80.984375 231.457031 82.070312 C 231.289062 82.96875 230.769531 83.773438 229.582031 84.167969 C 229.523438 84.1875 229.460938 84.199219 229.394531 84.203125 C 229.394531 84.203125 226.691406 84.332031 224.402344 84.878906 C 223.726562 85.042969 223.089844 85.238281 222.582031 85.484375 C 222.226562 85.65625 221.933594 85.839844 221.78125 86.074219 C 221.769531 86.09375 221.753906 86.113281 221.742188 86.132812 L 220.546875 87.621094 C 221.09375 88.15625 221.96875 89.128906 222.574219 90.328125 C 222.992188 91.15625 223.28125 92.089844 223.28125 93.066406 L 223.28125 95.160156 C 224.785156 94.96875 227.84375 95.019531 229.414062 98.121094 C 230.433594 100.136719 230.824219 103.550781 229.5 109.277344 C 229.492188 109.308594 229.480469 109.34375 229.46875 109.375 C 229.46875 109.375 228.757812 111.160156 228.535156 113.328125 C 228.40625 114.589844 228.441406 115.988281 228.90625 117.226562 C 228.960938 117.378906 229.015625 117.527344 229.058594 117.683594 C 229.105469 117.835938 229.144531 117.992188 229.179688 118.148438 C 229.714844 120.578125 232.316406 132.742188 233.484375 142.066406 C 234.0625 146.667969 234.261719 150.597656 233.757812 152.421875 C 234.535156 153.933594 238.792969 162.296875 240.929688 168.8125 C 241.613281 170.898438 242.082031 172.800781 242.167969 174.246094 C 242.230469 175.3125 242.066406 176.15625 241.707031 176.714844 C 241.710938 177.449219 241.78125 180.117188 242.480469 182.511719 C 242.863281 183.816406 243.421875 185.046875 244.304688 185.769531 C 244.378906 185.828125 245.21875 186.5 246.183594 187.414062 C 246.765625 187.964844 247.390625 188.597656 247.921875 189.242188 C 248.394531 189.808594 248.753906 190.453125 248.988281 191.140625 C 249.21875 191.824219 249.328125 192.554688 249.296875 193.292969 C 249.296875 193.292969 249.125 197.359375 249.125 197.359375 C 249.101562 197.921875 248.984375 198.46875 248.78125 198.984375 C 248.582031 199.5 248.292969 199.980469 247.929688 200.410156 C 246.34375 202.261719 243.261719 205.628906 241.402344 206.453125 C 240.769531 206.734375 240.230469 206.742188 239.839844 206.535156 C 239.582031 206.402344 239.355469 206.164062 239.214844 205.78125 C 238.507812 205.925781 237.277344 206.144531 236.082031 206.179688 C 235.082031 206.207031 234.105469 206.09375 233.425781 205.753906 C 232.960938 205.523438 232.613281 205.1875 232.425781 204.742188 C 232.222656 204.257812 232.203125 203.617188 232.519531 202.789062 C 232.578125 202.636719 232.695312 202.515625 232.847656 202.453125 C 232.847656 202.453125 235.78125 201.304688 237.164062 199.351562 C 237.753906 198.515625 238.042969 197.519531 237.566406 196.398438 C 237.140625 195.90625 234.59375 192.902344 233.65625 190.335938 C 233.25 189.214844 233.160156 188.167969 233.535156 187.375 C 232.726562 186.753906 230.980469 185.277344 229.726562 183.3125 C 229.019531 182.203125 228.46875 180.9375 228.3125 179.585938 C 227.902344 179.152344 226.539062 177.734375 225.179688 176.699219 C 224.683594 176.324219 224.191406 176 223.75 175.804688 C 223.492188 175.691406 223.261719 175.601562 223.078125 175.636719 C 222.851562 176.507812 222.003906 179.742188 221.097656 181.464844 C 220.859375 181.914062 220.613281 182.269531 220.375 182.484375 C 220.308594 182.546875 220.242188 182.597656 220.175781 182.640625 C 220.292969 184.054688 220.675781 188.996094 220.878906 194.078125 C 220.992188 196.863281 221.046875 199.691406 220.976562 202.007812 C 220.90625 203.996094 221.046875 205.980469 221.394531 207.929688 C 221.742188 209.878906 222.296875 211.789062 223.050781 213.632812 C 226.820312 222.886719 232.964844 240.347656 234.039062 258.144531 C 234.667969 268.582031 233.550781 279.128906 229.214844 288.21875 C 229.085938 288.585938 227.183594 293.992188 226.058594 298.964844 C 225.386719 301.941406 224.976562 304.757812 225.449219 306.191406 C 226.070312 308.074219 227.164062 309.839844 228.496094 311.335938 C 229.898438 312.914062 231.5625 314.203125 233.21875 315.027344 C 233.335938 315.085938 237.097656 316.894531 240.625 318.5 C 242.582031 319.390625 244.46875 320.214844 245.617188 320.640625 C 245.671875 320.660156 245.722656 320.695312 245.761719 320.746094 C 245.761719 320.746094 247.617188 323.035156 247.3125 325.296875 C 247.140625 326.582031 246.300781 327.882812 244.039062 328.746094 C 242.730469 329.246094 241.027344 329.464844 239.117188 329.507812 C 232.441406 329.664062 223.171875 327.679688 219.695312 328.722656 C 219.691406 328.722656 219.683594 328.726562 219.679688 328.726562 C 219.679688 328.726562 211.691406 330.707031 207.050781 329.605469 C 204.871094 329.089844 203.410156 327.90625 203.660156 325.640625 C 203.664062 325.628906 203.664062 325.617188 203.667969 325.605469 C 203.667969 325.605469 205.78125 317.074219 206.902344 309.179688 C 207.53125 304.75 207.851562 300.523438 207.292969 298.140625 C 207.292969 298.132812 207.289062 298.125 207.289062 298.113281 C 207.289062 298.113281 206.257812 289.390625 206.25 281.054688 C 206.246094 276.800781 206.511719 272.648438 207.3125 269.792969 C 206.921875 269.292969 204.683594 266.378906 202.214844 262.355469 C 200.789062 260.035156 199.285156 257.34375 198.011719 254.535156 C 192.066406 260.355469 182.394531 266.425781 172.800781 271.417969 C 160.5625 277.785156 148.449219 282.382812 144.359375 282.480469 C 144.027344 282.730469 142.394531 283.988281 140.8125 285.839844 C 139.796875 287.019531 138.804688 288.445312 138.191406 290 C 138.1875 290.007812 138.183594 290.011719 138.183594 290.019531 C 138.183594 290.019531 136.210938 294.109375 135.117188 297.890625 C 134.480469 300.085938 134.113281 302.167969 134.679688 303.230469 C 134.695312 303.257812 136.332031 306.3125 137.371094 308.660156 C 137.878906 309.800781 138.238281 310.789062 138.238281 311.210938 C 138.238281 311.214844 138.238281 311.21875 138.238281 311.222656 C 138.238281 311.222656 138.121094 314.03125 135.5625 315.449219 C 134.085938 316.269531 131.773438 316.632812 128.152344 315.648438 C 128.105469 315.636719 128.066406 315.613281 128.03125 315.582031 C 128.03125 315.582031 123.382812 311.476562 120.050781 306.992188 C 118.222656 304.53125 116.800781 301.953125 116.6875 299.867188 C 116.6875 299.820312 116.695312 299.777344 116.707031 299.734375 C 116.707031 299.734375 117.621094 297.199219 116.332031 294.320312 C 115.714844 292.941406 114.59375 291.488281 112.640625 290.191406 C 112.617188 290.175781 112.59375 290.152344 112.570312 290.128906 C 112.570312 290.128906 107.105469 283.785156 106.371094 278.816406 C 106.175781 277.496094 106.308594 276.265625 106.921875 275.257812 C 107.65625 274.042969 109.101562 273.125 111.589844 272.792969 C 111.609375 272.792969 111.632812 272.789062 111.65625 272.792969 C 111.65625 272.792969 117.992188 273.105469 123.820312 272.117188 C 126.726562 271.621094 129.511719 270.808594 131.28125 269.441406 C 131.28125 269.441406 131.285156 269.441406 131.285156 269.4375 C 131.285156 269.4375 153.296875 252.9375 168.101562 239.511719 C 173.007812 235.066406 177.121094 230.960938 179.363281 227.910156 C 180.378906 226.53125 181.011719 225.390625 181.109375 224.542969 C 181.109375 224.535156 181.109375 224.53125 181.109375 224.523438 C 181.109375 224.523438 181.386719 222.558594 179.855469 219.421875 C 178.984375 217.640625 177.535156 215.496094 175.152344 213.121094 C 175.101562 213.304688 175.042969 213.527344 175.003906 213.730469 C 174.761719 215.058594 174.539062 217.003906 174.085938 217.800781 C 173.863281 218.1875 173.570312 218.375 173.269531 218.390625 C 173.359375 218.933594 173.445312 219.609375 173.464844 220.261719 C 173.492188 221.125 173.378906 221.949219 173.058594 222.4375 C 172.71875 222.96875 172.179688 223.238281 171.332031 222.960938 C 170.90625 222.820312 170.367188 222.507812 169.707031 221.957031 C 169.019531 222.011719 166.90625 222.097656 164.886719 221.21875 C 163.558594 220.640625 162.269531 219.65625 161.429688 217.988281 C 161.042969 218.042969 160.464844 218.023438 159.890625 217.667969 C 159.46875 217.40625 159.039062 216.957031 158.703125 216.175781 C 158.703125 216.175781 158.703125 216.175781 158.703125 216.171875 C 158.703125 216.171875 157.539062 213.417969 157.523438 209.484375 C 157.515625 207.511719 157.796875 205.246094 158.65625 202.878906 C 158.710938 202.15625 159.171875 196.050781 159.226562 190.542969 C 159.261719 187.128906 159.148438 183.949219 158.664062 182.484375 C 158.582031 182.289062 157.925781 180.703125 157.453125 179.019531 C 157.265625 178.339844 157.105469 177.644531 157.023438 177.011719 C 155.820312 176.855469 152.449219 176.316406 149.398438 174.953125 C 147.59375 174.144531 145.90625 173.042969 144.808594 171.582031 C 144.808594 171.582031 144.808594 171.582031 144.808594 171.578125 C 144.421875 171.0625 143.925781 170.644531 143.367188 170.351562 C 142.808594 170.058594 142.183594 169.890625 141.539062 169.863281 C 138.777344 169.753906 134.609375 169.113281 131.878906 166.632812 C 130.304688 165.203125 129.1875 163.179688 129.0625 160.304688 C 129.0625 160.296875 129.058594 160.285156 129.058594 160.277344 C 129.058594 160.277344 129.058594 158.566406 128.828125 156.863281 C 128.722656 156.089844 128.570312 155.316406 128.347656 154.71875 C 127.96875 153.730469 127.660156 152.71875 127.425781 151.691406 C 127.1875 150.664062 127.019531 149.617188 126.925781 148.566406 C 126.925781 148.5625 126.925781 148.5625 126.925781 148.558594 L 126.847656 147.511719 C 126.785156 146.636719 126.800781 145.757812 126.894531 144.886719 C 126.984375 144.015625 127.152344 143.152344 127.394531 142.308594 C 127.847656 140.734375 128.480469 138.523438 129.039062 136.421875 C 129.417969 135.003906 129.769531 133.632812 130.011719 132.542969 C 130.023438 131.980469 130.136719 127.601562 130.652344 123.582031 C 130.960938 121.167969 131.425781 118.882812 132.082031 117.578125 C 132.125 117.492188 133.261719 115.105469 133.414062 112.597656 C 133.480469 111.5 133.363281 110.375 132.835938 109.433594 C 132.820312 109.40625 132.808594 109.375 132.796875 109.34375 C 132.796875 109.34375 130.457031 103.078125 129.554688 97.175781 C 129.042969 93.820312 129.023438 90.582031 130.046875 88.589844 C 130.699219 87.320312 131.132812 86.300781 131.433594 85.453125 C 131.902344 84.121094 132.027344 83.230469 132.140625 82.496094 C 132.269531 81.679688 132.386719 81.035156 132.820312 80.265625 C 132.84375 80.226562 132.867188 80.191406 132.898438 80.15625 C 132.898438 80.15625 138.09375 74.179688 146.976562 71.636719 C 151.546875 70.332031 157.089844 69.929688 163.402344 71.71875 C 163.449219 71.730469 163.496094 71.75 163.539062 71.773438 C 163.539062 71.773438 166.40625 73.328125 169.726562 74.574219 C 171.136719 75.105469 172.628906 75.578125 174.011719 75.851562 C 175.003906 76.042969 176.007812 75.96875 176.933594 75.660156 C 177.859375 75.351562 178.707031 74.808594 179.386719 74.0625 C 180.503906 72.84375 182.109375 71.179688 183.816406 69.734375 C 184.960938 68.765625 186.152344 67.898438 187.269531 67.3125 C 187.3125 67.292969 187.355469 67.273438 187.402344 67.261719 C 187.402344 67.261719 189.242188 66.742188 190.984375 66.738281 C 191.386719 66.734375 191.78125 66.765625 192.152344 66.828125 C 191.636719 64.90625 190.828125 61.214844 191.191406 57.972656 C 191.464844 55.566406 192.378906 53.421875 194.386719 52.269531 C 194.222656 51.535156 194.105469 50.21875 194.734375 48.683594 C 195.148438 47.667969 195.890625 46.550781 197.191406 45.445312 C 198.660156 44.203125 200.382812 43.347656 202.199219 42.90625 C 204.019531 42.46875 205.941406 42.449219 207.816406 42.882812 C 211.222656 43.664062 216.59375 44.699219 221.566406 44.796875 C 224.945312 44.863281 228.136719 44.511719 230.347656 43.296875 C 230.53125 43.195312 230.753906 43.183594 230.953125 43.261719 C 231.148438 43.34375 231.296875 43.507812 231.359375 43.710938 C 231.359375 43.710938 232.339844 46.980469 231.203125 50.050781 C 230.617188 51.636719 229.484375 53.171875 227.394531 54.199219 C 228.039062 55.386719 229.292969 57.898438 229.625 60.039062 C 229.804688 61.1875 229.710938 62.234375 229.25 63.007812 C 229.558594 63.667969 230.273438 65.121094 231.109375 66.378906 C 231.65625 67.207031 232.242188 67.964844 232.8125 68.265625 C 233.230469 68.484375 233.539062 68.839844 233.707031 69.253906 C 233.871094 69.667969 233.898438 70.136719 233.75 70.585938 C 233.617188 70.996094 233.359375 71.398438 232.898438 71.695312 C 232.554688 71.917969 232.082031 72.085938 231.421875 72.125 C 231.292969 72.246094 231.109375 72.429688 230.945312 72.636719 C 230.863281 72.742188 230.785156 72.855469 230.726562 72.972656 C 230.710938 73.003906 230.691406 73.054688 230.679688 73.09375 Z M 222.601562 96.671875 C 222.640625 96.683594 222.828125 96.722656 222.996094 96.589844 C 223.804688 96.410156 226.785156 95.957031 228.199219 98.738281 C 229.132812 100.582031 229.390625 103.699219 228.191406 108.925781 C 228.054688 109.292969 227.226562 111.566406 227.136719 114.085938 C 227.09375 115.292969 227.21875 116.554688 227.652344 117.699219 C 227.652344 117.703125 227.652344 117.703125 227.652344 117.703125 L 227.875 118.4375 C 228.410156 120.855469 231.015625 132.953125 232.191406 142.230469 C 232.773438 146.808594 233.039062 150.679688 232.457031 152.257812 C 232.394531 152.429688 232.40625 152.617188 232.492188 152.777344 C 232.492188 152.777344 237.390625 162.105469 239.730469 169.207031 C 240.378906 171.171875 240.832031 172.960938 240.914062 174.320312 C 240.964844 175.117188 240.914062 175.742188 240.605469 176.101562 C 240.511719 176.210938 240.457031 176.351562 240.457031 176.5 C 240.457031 176.5 240.417969 179.882812 241.292969 182.859375 C 241.75 184.421875 242.46875 185.867188 243.53125 186.730469 C 243.53125 186.730469 243.535156 186.734375 243.535156 186.734375 C 243.535156 186.734375 244.371094 187.394531 245.339844 188.308594 C 245.886719 188.824219 246.480469 189.421875 246.984375 190.023438 C 246.984375 190.023438 246.984375 190.023438 246.984375 190.027344 C 247.359375 190.476562 247.644531 190.984375 247.832031 191.53125 C 248.019531 192.078125 248.105469 192.65625 248.082031 193.242188 L 247.917969 197.308594 C 247.902344 197.738281 247.8125 198.152344 247.660156 198.546875 C 247.507812 198.9375 247.289062 199.304688 247.015625 199.632812 C 245.9375 200.894531 244.148438 202.902344 242.566406 204.242188 C 241.964844 204.746094 241.398438 205.15625 240.921875 205.371094 C 240.789062 205.429688 240.664062 205.472656 240.550781 205.492188 C 240.488281 205.5 240.433594 205.511719 240.390625 205.488281 C 240.355469 205.472656 240.34375 205.433594 240.324219 205.386719 C 240.285156 205.289062 240.261719 205.167969 240.25 205.023438 C 240.234375 204.851562 240.144531 204.695312 240.003906 204.59375 C 239.863281 204.496094 239.683594 204.460938 239.515625 204.503906 C 239.515625 204.503906 236.535156 205.277344 234.617188 204.917969 C 234.144531 204.828125 233.734375 204.691406 233.542969 204.371094 C 233.402344 204.136719 233.40625 203.832031 233.527344 203.425781 C 234.324219 203.070312 236.8125 201.84375 238.105469 200.015625 C 238.933594 198.839844 239.296875 197.433594 238.574219 195.851562 C 238.550781 195.800781 238.519531 195.75 238.480469 195.707031 C 238.480469 195.707031 236.277344 193.238281 235.097656 190.828125 C 234.738281 190.089844 234.472656 189.359375 234.421875 188.71875 C 234.390625 188.285156 234.453125 187.898438 234.710938 187.609375 C 234.820312 187.488281 234.871094 187.328125 234.851562 187.167969 C 234.832031 187.007812 234.742188 186.863281 234.609375 186.773438 C 234.609375 186.773438 232.226562 185.152344 230.664062 182.710938 C 230.011719 181.699219 229.503906 180.539062 229.390625 179.296875 C 229.378906 179.175781 229.328125 179.0625 229.246094 178.972656 C 229.246094 178.972656 227.078125 176.613281 225.195312 175.371094 C 224.617188 174.988281 224.0625 174.710938 223.59375 174.605469 C 223.214844 174.515625 222.878906 174.535156 222.597656 174.648438 C 222.59375 174.648438 222.589844 174.648438 222.585938 174.652344 C 222.449219 174.710938 222.332031 174.796875 222.238281 174.910156 C 222.148438 175.015625 222.078125 175.148438 222.042969 175.289062 C 221.902344 175.839844 221.375 177.914062 220.730469 179.621094 C 220.457031 180.347656 220.164062 181.003906 219.867188 181.433594 C 219.792969 181.539062 219.722656 181.628906 219.648438 181.695312 C 219.628906 181.714844 219.589844 181.738281 219.578125 181.75 C 219.4375 181.757812 219.308594 181.820312 219.214844 181.921875 C 219.113281 182.03125 219.0625 182.179688 219.074219 182.332031 C 219.074219 182.332031 219.582031 188.128906 219.835938 194.121094 C 219.953125 196.882812 220.015625 199.683594 219.949219 201.972656 C 219.882812 204.035156 220.035156 206.089844 220.398438 208.109375 C 220.765625 210.125 221.339844 212.105469 222.125 214.011719 C 225.894531 223.195312 232.039062 240.523438 233.148438 258.199219 C 233.796875 268.496094 232.734375 278.910156 228.476562 287.886719 C 228.46875 287.902344 228.464844 287.914062 228.460938 287.925781 C 228.460938 287.925781 225.945312 295.046875 224.921875 300.652344 C 224.476562 303.070312 224.324219 305.21875 224.726562 306.429688 C 225.386719 308.40625 226.539062 310.257812 227.941406 311.828125 C 229.414062 313.480469 231.164062 314.820312 232.902344 315.679688 C 232.902344 315.679688 232.90625 315.679688 232.90625 315.683594 C 232.90625 315.683594 236.742188 317.515625 240.335938 319.136719 C 242.265625 320.007812 244.125 320.816406 245.289062 321.25 C 245.578125 321.625 246.878906 323.421875 246.644531 325.207031 C 246.5 326.308594 245.738281 327.382812 243.800781 328.128906 C 242.550781 328.609375 240.925781 328.8125 239.097656 328.859375 C 232.378906 329.035156 223.035156 327.09375 219.527344 328.152344 C 219.246094 328.222656 211.640625 330.105469 207.179688 329.058594 C 205.308594 328.621094 204.003906 327.65625 204.203125 325.71875 C 204.308594 325.277344 206.324219 316.957031 207.398438 309.25 C 208.023438 304.753906 208.320312 300.46875 207.75 298.046875 C 207.703125 297.664062 206.695312 289.175781 206.664062 281.054688 C 206.648438 276.792969 206.898438 272.636719 207.703125 269.804688 C 207.71875 269.746094 207.707031 269.683594 207.667969 269.636719 C 207.667969 269.636719 205.234375 266.570312 202.515625 262.171875 C 201.054688 259.804688 199.507812 257.054688 198.214844 254.1875 C 198.191406 254.140625 198.148438 254.105469 198.09375 254.09375 C 198.042969 254.085938 197.988281 254.101562 197.953125 254.136719 C 192.027344 259.972656 182.277344 266.0625 172.613281 271.054688 C 160.363281 277.386719 148.257812 281.964844 144.273438 281.992188 C 144.222656 281.992188 144.175781 282.011719 144.132812 282.039062 C 144.132812 282.039062 142.25 283.398438 140.429688 285.511719 C 139.382812 286.730469 138.355469 288.199219 137.714844 289.800781 C 137.605469 290.023438 135.171875 295.085938 134.230469 299.125 C 133.808594 300.949219 133.703125 302.570312 134.191406 303.492188 C 134.191406 303.492188 135.820312 306.546875 136.851562 308.890625 C 137.308594 309.925781 137.65625 310.816406 137.660156 311.207031 C 137.652344 311.351562 137.476562 313.71875 135.277344 314.933594 C 133.894531 315.691406 131.742188 315.992188 128.382812 315.078125 C 127.867188 314.617188 123.644531 310.773438 120.5625 306.609375 C 118.847656 304.289062 117.476562 301.871094 117.351562 299.894531 C 117.496094 299.453125 118.21875 296.902344 116.945312 294.042969 C 116.292969 292.582031 115.117188 291.03125 113.0625 289.644531 C 112.636719 289.144531 107.753906 283.320312 107.082031 278.710938 C 106.914062 277.570312 107.011719 276.503906 107.539062 275.636719 C 108.1875 274.570312 109.480469 273.820312 111.652344 273.53125 C 112.160156 273.554688 118.289062 273.820312 123.945312 272.871094 C 126.992188 272.363281 129.902344 271.492188 131.757812 270.066406 C 131.9375 269.933594 153.902344 253.535156 168.707031 240.179688 C 173.675781 235.691406 177.84375 231.546875 180.121094 228.464844 C 181.265625 226.914062 181.933594 225.609375 182.046875 224.660156 C 182.066406 224.523438 182.355469 222.367188 180.71875 219 C 179.789062 217.085938 178.234375 214.769531 175.625 212.207031 C 175.429688 211.957031 175.21875 211.882812 175.058594 211.875 C 174.8125 211.859375 174.492188 212.015625 174.304688 212.488281 C 173.972656 213.324219 173.804688 215.679688 173.378906 216.933594 C 173.332031 217.078125 173.238281 217.25 173.183594 217.34375 C 173.125 217.289062 173.039062 217.199219 172.96875 217.097656 C 172.828125 216.90625 172.570312 216.839844 172.355469 216.9375 C 172.136719 217.039062 172.019531 217.277344 172.078125 217.507812 C 172.078125 217.507812 172.425781 218.953125 172.460938 220.289062 C 172.480469 220.921875 172.445312 221.53125 172.214844 221.890625 C 172.105469 222.058594 171.921875 222.089844 171.652344 222 C 171.273438 221.875 170.804688 221.570312 170.203125 221.046875 C 170.09375 220.949219 169.949219 220.90625 169.804688 220.925781 C 169.804688 220.925781 167.488281 221.238281 165.296875 220.28125 C 164.078125 219.746094 162.894531 218.8125 162.199219 217.1875 C 162.085938 216.929688 161.789062 216.804688 161.527344 216.914062 C 161.527344 216.914062 160.984375 217.125 160.4375 216.785156 C 160.15625 216.609375 159.886719 216.292969 159.660156 215.769531 C 159.621094 215.675781 158.585938 213.113281 158.578125 209.480469 C 158.574219 207.601562 158.847656 205.433594 159.683594 203.179688 C 159.699219 203.132812 159.710938 203.085938 159.714844 203.039062 C 159.714844 203.039062 160.386719 194.777344 160.324219 188.464844 C 160.292969 185.714844 160.117188 183.332031 159.707031 182.109375 C 159.703125 182.09375 159.695312 182.082031 159.691406 182.066406 C 159.691406 182.066406 159.007812 180.449219 158.53125 178.722656 C 158.316406 177.945312 158.140625 177.148438 158.097656 176.46875 C 158.078125 176.195312 157.863281 175.976562 157.589844 175.949219 C 157.589844 175.949219 153.488281 175.546875 149.867188 173.914062 C 148.242188 173.183594 146.714844 172.210938 145.726562 170.890625 C 145.238281 170.234375 144.613281 169.703125 143.902344 169.332031 C 143.195312 168.957031 142.402344 168.742188 141.585938 168.707031 C 139.429688 168.621094 136.339844 168.207031 133.910156 166.699219 C 131.914062 165.457031 130.382812 163.460938 130.246094 160.265625 C 130.242188 160.109375 130.234375 158.402344 130.007812 156.703125 C 129.890625 155.832031 129.714844 154.96875 129.460938 154.296875 C 129.460938 154.296875 129.460938 154.296875 129.460938 154.292969 C 129.105469 153.355469 128.816406 152.398438 128.59375 151.421875 C 128.371094 150.449219 128.214844 149.460938 128.125 148.460938 L 128.050781 147.429688 C 127.996094 146.625 128.011719 145.816406 128.097656 145.015625 C 128.179688 144.214844 128.335938 143.421875 128.5625 142.644531 C 129.019531 141.066406 129.65625 138.847656 130.222656 136.738281 C 130.617188 135.273438 130.976562 133.863281 131.226562 132.75 C 131.234375 132.710938 131.238281 132.671875 131.238281 132.628906 C 131.238281 132.628906 131.335938 127.980469 131.886719 123.742188 C 132.179688 121.488281 132.589844 119.351562 133.203125 118.140625 C 133.203125 118.136719 133.207031 118.132812 133.207031 118.132812 C 133.207031 118.132812 134.5 115.472656 134.675781 112.675781 C 134.757812 111.351562 134.589844 110 133.96875 108.859375 C 133.765625 108.304688 131.664062 102.480469 130.828125 96.980469 C 130.367188 93.9375 130.269531 90.992188 131.203125 89.183594 C 131.886719 87.851562 132.34375 86.777344 132.660156 85.886719 C 133.167969 84.449219 133.308594 83.488281 133.433594 82.695312 C 133.53125 82.0625 133.609375 81.558594 133.925781 80.96875 C 134.433594 80.410156 139.316406 75.195312 147.34375 72.910156 C 151.691406 71.671875 156.964844 71.296875 162.964844 72.992188 C 163.417969 73.234375 166.140625 74.667969 169.25 75.839844 C 170.730469 76.398438 172.296875 76.898438 173.753906 77.183594 C 174.976562 77.421875 176.21875 77.332031 177.363281 76.953125 C 178.507812 76.574219 179.558594 75.902344 180.394531 74.984375 C 181.480469 73.800781 183.042969 72.183594 184.703125 70.78125 C 185.742188 69.902344 186.820312 69.105469 187.84375 68.566406 C 188.164062 68.480469 189.609375 68.117188 190.988281 68.113281 C 191.675781 68.113281 192.351562 68.183594 192.808594 68.492188 C 193.050781 68.660156 193.375 68.652344 193.613281 68.472656 C 193.847656 68.292969 193.945312 67.984375 193.847656 67.703125 C 193.847656 67.703125 192.074219 62.480469 192.570312 58.128906 C 192.808594 56.027344 193.570312 54.113281 195.496094 53.265625 C 195.84375 53.109375 196.003906 52.707031 195.855469 52.355469 C 195.855469 52.355469 195.296875 50.980469 196.023438 49.207031 C 196.367188 48.363281 197.003906 47.433594 198.09375 46.511719 C 199.394531 45.414062 200.917969 44.652344 202.527344 44.265625 C 204.140625 43.878906 205.839844 43.859375 207.5 44.246094 C 210.976562 45.046875 216.460938 46.097656 221.539062 46.199219 C 224.789062 46.265625 227.871094 45.929688 230.195312 44.929688 C 230.375 45.957031 230.535156 47.800781 229.882812 49.5625 C 229.347656 51.003906 228.25 52.386719 226.144531 53.214844 C 225.953125 53.289062 225.800781 53.445312 225.734375 53.640625 C 225.667969 53.839844 225.691406 54.054688 225.800781 54.230469 C 225.800781 54.230469 227.402344 56.878906 228.054688 59.375 C 228.246094 60.105469 228.355469 60.820312 228.296875 61.4375 C 228.261719 61.839844 228.15625 62.195312 227.917969 62.464844 C 227.738281 62.667969 227.691406 62.960938 227.800781 63.210938 C 227.800781 63.210938 228.757812 65.367188 229.941406 67.152344 C 230.640625 68.207031 231.4375 69.121094 232.160156 69.503906 C 232.277344 69.5625 232.363281 69.664062 232.410156 69.777344 C 232.457031 69.890625 232.460938 70.023438 232.421875 70.148438 C 232.421875 70.148438 232.421875 70.148438 232.421875 70.152344 C 232.367188 70.320312 232.246094 70.484375 232.019531 70.585938 C 231.804688 70.683594 231.519531 70.734375 231.148438 70.734375 C 230.984375 70.734375 230.828125 70.792969 230.703125 70.894531 C 230.703125 70.894531 229.574219 71.871094 229.332031 72.710938 C 229.175781 73.25 229.265625 73.753906 229.75 74.136719 C 229.863281 74.269531 230.160156 74.648438 230.21875 75.019531 C 230.222656 75.054688 230.234375 75.09375 230.214844 75.128906 C 230.171875 75.203125 230.066406 75.230469 229.917969 75.269531 C 229.6875 75.328125 229.503906 75.5 229.429688 75.726562 C 229.355469 75.949219 229.398438 76.199219 229.546875 76.382812 C 229.546875 76.382812 230.011719 76.945312 230.113281 77.527344 C 230.132812 77.648438 230.144531 77.773438 230.089844 77.878906 C 230.039062 77.96875 229.945312 78.035156 229.8125 78.09375 C 229.632812 78.171875 229.496094 78.320312 229.433594 78.503906 C 229.371094 78.6875 229.386719 78.890625 229.476562 79.058594 C 229.476562 79.058594 230.316406 80.585938 230.089844 81.816406 C 230.007812 82.242188 229.757812 82.617188 229.222656 82.820312 C 228.613281 82.859375 225.480469 83.070312 223.203125 83.769531 C 222.019531 84.136719 221.066406 84.664062 220.640625 85.292969 L 219.070312 87.257812 C 218.832031 87.554688 218.878906 87.984375 219.171875 88.222656 C 219.171875 88.222656 220.253906 89.117188 221.066406 90.445312 C 221.527344 91.203125 221.90625 92.101562 221.90625 93.066406 C 221.90625 94.628906 221.910156 95.355469 221.910156 95.691406 C 221.910156 96.886719 222.59375 96.671875 222.59375 96.671875 Z M 222.601562 96.671875 " fill-opacity="1" fill-rule="evenodd"/></g></svg>