<?xml version="1.0" encoding="UTF-8"?>
<svg xmlns="http://www.w3.org/2000/svg" xmlns:xlink="http://www.w3.org/1999/xlink" width="100px" height="100px" viewBox="0 0 100 100" version="1.1">
<defs>
<clipPath id="clip1">
  <path d="M 36.265625 31.859375 L 60.371094 31.859375 L 60.371094 80.265625 L 36.265625 80.265625 Z M 36.265625 31.859375 "/>
</clipPath>
</defs>
<g id="surface1">
<path style=" stroke:none;fill-rule:evenodd;fill:rgb(21.960784%,71.372549%,100%);fill-opacity:1;" d="M 51.691406 67.460938 C 49.429688 69.691406 43.855469 72.152344 42.652344 72.164062 C 42.652344 72.164062 41.878906 72.722656 41.589844 73.449219 C 41.589844 73.449219 40.734375 75.214844 41 75.710938 C 41 75.710938 41.589844 76.816406 41.589844 77.03125 C 41.589844 77.03125 41.539062 78.160156 39.957031 77.726562 C 39.957031 77.726562 38.121094 76.101562 38.074219 75.121094 C 38.074219 75.121094 38.425781 74.152344 37.367188 73.449219 C 37.367188 73.449219 35.171875 70.898438 37.167969 70.636719 C 37.167969 70.636719 39.605469 70.761719 40.507812 70.066406 C 40.507812 70.066406 48.757812 63.894531 48.921875 62.476562 C 48.921875 62.476562 49.054688 61.617188 47.859375 60.449219 C 47.675781 60.195312 47.734375 61.71875 47.40625 61.265625 C 47.40625 61.265625 47.734375 62.621094 46.953125 61.945312 C 46.953125 61.945312 45.9375 62.082031 45.585938 61.265625 C 45.585938 61.265625 45.308594 61.378906 45.15625 61.027344 C 45.15625 61.027344 44.730469 60.007812 45.15625 58.847656 C 45.15625 58.847656 45.382812 56.035156 45.15625 55.367188 C 45.15625 55.367188 44.90625 54.773438 44.882812 54.394531 C 44.882812 54.394531 43.375 54.246094 42.820312 53.507812 C 42.671875 53.3125 42.445312 53.191406 42.195312 53.179688 C 41.5 53.152344 40.25 52.925781 40.195312 51.667969 C 40.195312 51.667969 40.195312 51.03125 40.070312 50.699219 C 39.945312 50.375 39.867188 50.035156 39.839844 49.691406 C 39.832031 49.632812 39.828125 49.574219 39.824219 49.515625 C 39.804688 49.230469 39.835938 48.949219 39.914062 48.675781 C 40.042969 48.226562 40.257812 47.472656 40.359375 47.019531 C 40.359375 47.019531 40.398438 45.136719 40.699219 44.539062 C 40.699219 44.539062 41.136719 43.632812 40.824219 43.070312 C 40.824219 43.070312 39.894531 40.574219 40.359375 39.667969 C 40.824219 38.765625 40.648438 38.585938 40.824219 38.277344 C 40.824219 38.277344 42.785156 36.027344 45.835938 36.894531 C 45.835938 36.894531 46.835938 37.433594 47.628906 37.589844 C 48 37.664062 48.382812 37.535156 48.636719 37.257812 C 48.945312 36.921875 49.472656 36.386719 49.929688 36.148438 C 49.929688 36.148438 50.597656 35.960938 50.875 36.148438 C 50.875 36.148438 50.160156 34.042969 51.210938 33.578125 C 51.210938 33.578125 50.972656 33.007812 51.621094 32.460938 C 52.085938 32.066406 52.710938 31.917969 53.304688 32.054688 C 54.285156 32.28125 56.234375 32.628906 57.175781 32.113281 C 57.175781 32.113281 57.546875 33.355469 56.453125 33.785156 C 56.453125 33.785156 57.140625 34.921875 56.796875 35.308594 C 56.796875 35.308594 57.167969 36.148438 57.476562 36.308594 C 57.566406 36.355469 57.609375 36.460938 57.578125 36.558594 C 57.546875 36.652344 57.460938 36.738281 57.25 36.738281 C 57.25 36.738281 56.941406 36.992188 57.097656 37.105469 C 57.097656 37.105469 57.375 37.417969 57.074219 37.496094 C 57.074219 37.496094 57.351562 37.839844 57.074219 37.964844 C 57.074219 37.964844 57.417969 38.609375 56.949219 38.765625 C 56.949219 38.765625 55.78125 38.824219 55.582031 39.136719 L 55.3125 39.46875 C 55.3125 39.46875 55.8125 39.882812 55.8125 40.371094 L 55.8125 40.863281 C 55.8125 40.863281 57.488281 40.367188 56.863281 43.070312 C 56.863281 43.070312 56.542969 43.875 56.769531 44.472656 C 56.785156 44.519531 56.800781 44.566406 56.8125 44.613281 C 56.945312 45.226562 57.871094 49.542969 57.574219 50.355469 C 57.574219 50.355469 59.398438 53.839844 58.921875 54.394531 C 58.921875 54.394531 58.90625 55.628906 59.398438 56.03125 C 59.398438 56.03125 59.75 56.3125 59.992188 56.601562 C 60.132812 56.769531 60.207031 56.988281 60.199219 57.210938 C 60.191406 57.40625 60.179688 57.691406 60.171875 57.894531 C 60.164062 58.058594 60.101562 58.21875 59.996094 58.347656 C 59.617188 58.785156 58.730469 59.757812 58.683594 59.195312 C 58.683594 59.195312 57.304688 59.542969 57.574219 58.847656 C 57.574219 58.847656 58.730469 58.382812 58.414062 57.683594 C 58.414062 57.683594 57.433594 56.585938 57.78125 56.199219 C 57.78125 56.199219 56.929688 55.617188 56.863281 54.871094 C 56.863281 54.871094 56.117188 54.058594 55.847656 54.167969 C 55.828125 54.175781 55.816406 54.191406 55.808594 54.210938 C 55.769531 54.378906 55.515625 55.367188 55.3125 55.367188 C 55.3125 55.367188 55.492188 57.449219 55.457031 58.675781 C 55.433594 59.355469 55.554688 60.035156 55.8125 60.664062 C 56.816406 63.121094 58.824219 69.027344 56.863281 73.140625 C 56.863281 73.140625 56.011719 75.542969 56.234375 76.207031 C 56.453125 76.871094 57.015625 77.449219 57.574219 77.726562 C 57.574219 77.726562 59.117188 78.46875 59.664062 78.667969 C 59.664062 78.667969 60.382812 79.550781 59.398438 79.925781 C 58.414062 80.300781 56.0625 79.699219 55.3125 79.925781 C 55.3125 79.925781 52.550781 80.617188 52.679688 79.460938 C 52.679688 79.460938 53.542969 75.945312 53.28125 74.824219 C 53.28125 74.824219 52.878906 71.472656 53.28125 70.066406 C 53.28125 70.066406 52.3125 68.839844 51.691406 67.460938 Z M 51.691406 67.460938 "/>
<g clip-path="url(#clip1)" clip-rule="nonzero">
<path style=" stroke:none;fill-rule:evenodd;fill:rgb(21.960784%,71.372549%,100%);fill-opacity:1;" d="M 57.171875 37.015625 C 57.175781 37.019531 57.179688 37.023438 57.183594 37.027344 C 57.183594 37.027344 57.242188 37.09375 57.285156 37.175781 C 57.316406 37.242188 57.335938 37.320312 57.328125 37.386719 C 57.320312 37.445312 57.296875 37.5 57.242188 37.542969 C 57.28125 37.617188 57.316406 37.710938 57.316406 37.800781 C 57.3125 37.875 57.285156 37.949219 57.222656 38.007812 C 57.269531 38.128906 57.335938 38.34375 57.304688 38.523438 C 57.273438 38.675781 57.1875 38.8125 56.988281 38.878906 C 56.976562 38.882812 56.96875 38.882812 56.957031 38.882812 C 56.957031 38.882812 56.503906 38.90625 56.117188 38.996094 C 56.003906 39.023438 55.898438 39.058594 55.8125 39.097656 C 55.753906 39.128906 55.703125 39.160156 55.675781 39.199219 C 55.675781 39.199219 55.671875 39.203125 55.671875 39.207031 L 55.46875 39.457031 C 55.5625 39.546875 55.710938 39.710938 55.808594 39.914062 C 55.882812 40.050781 55.929688 40.207031 55.929688 40.371094 L 55.929688 40.726562 C 56.183594 40.691406 56.695312 40.699219 56.960938 41.222656 C 57.132812 41.558594 57.195312 42.132812 56.972656 43.097656 C 56.972656 43.101562 56.972656 43.109375 56.96875 43.113281 C 56.96875 43.113281 56.851562 43.414062 56.8125 43.777344 C 56.789062 43.988281 56.796875 44.226562 56.875 44.433594 C 56.882812 44.457031 56.894531 44.484375 56.898438 44.507812 C 56.910156 44.535156 56.914062 44.5625 56.921875 44.585938 C 57.011719 44.996094 57.449219 47.039062 57.644531 48.605469 C 57.742188 49.378906 57.773438 50.039062 57.691406 50.347656 C 57.820312 50.601562 58.535156 52.007812 58.894531 53.101562 C 59.011719 53.453125 59.089844 53.773438 59.101562 54.015625 C 59.113281 54.195312 59.085938 54.335938 59.027344 54.429688 C 59.027344 54.554688 59.039062 55 59.15625 55.402344 C 59.21875 55.621094 59.3125 55.828125 59.460938 55.949219 C 59.476562 55.960938 59.617188 56.074219 59.777344 56.226562 C 59.875 56.320312 59.980469 56.425781 60.070312 56.535156 C 60.148438 56.628906 60.210938 56.738281 60.25 56.851562 C 60.289062 56.96875 60.304688 57.089844 60.300781 57.214844 C 60.300781 57.214844 60.273438 57.898438 60.273438 57.898438 C 60.269531 57.992188 60.25 58.085938 60.214844 58.171875 C 60.179688 58.257812 60.132812 58.339844 60.070312 58.410156 C 59.804688 58.722656 59.289062 59.289062 58.972656 59.425781 C 58.867188 59.472656 58.777344 59.476562 58.710938 59.441406 C 58.667969 59.417969 58.628906 59.378906 58.605469 59.3125 C 58.488281 59.339844 58.28125 59.375 58.082031 59.378906 C 57.914062 59.386719 57.75 59.367188 57.632812 59.308594 C 57.554688 59.269531 57.496094 59.214844 57.464844 59.140625 C 57.433594 59.058594 57.429688 58.949219 57.480469 58.808594 C 57.492188 58.785156 57.511719 58.765625 57.539062 58.753906 C 57.539062 58.753906 58.03125 58.5625 58.261719 58.234375 C 58.363281 58.09375 58.410156 57.925781 58.332031 57.738281 C 58.257812 57.652344 57.832031 57.148438 57.671875 56.71875 C 57.605469 56.53125 57.589844 56.355469 57.652344 56.222656 C 57.515625 56.117188 57.222656 55.867188 57.011719 55.539062 C 56.894531 55.351562 56.800781 55.140625 56.773438 54.914062 C 56.707031 54.839844 56.476562 54.601562 56.246094 54.425781 C 56.164062 54.363281 56.082031 54.308594 56.007812 54.277344 C 55.964844 54.257812 55.925781 54.242188 55.894531 54.246094 C 55.855469 54.394531 55.714844 54.9375 55.5625 55.226562 C 55.523438 55.304688 55.480469 55.363281 55.441406 55.398438 C 55.429688 55.410156 55.417969 55.417969 55.40625 55.425781 C 55.425781 55.664062 55.492188 56.492188 55.527344 57.347656 C 55.542969 57.816406 55.554688 58.289062 55.542969 58.679688 C 55.53125 59.015625 55.554688 59.347656 55.613281 59.675781 C 55.671875 60.003906 55.761719 60.324219 55.890625 60.632812 C 56.523438 62.1875 57.554688 65.121094 57.738281 68.113281 C 57.84375 69.867188 57.65625 71.640625 56.925781 73.167969 C 56.902344 73.230469 56.585938 74.136719 56.394531 74.972656 C 56.285156 75.472656 56.214844 75.945312 56.292969 76.1875 C 56.398438 76.503906 56.582031 76.800781 56.804688 77.050781 C 57.042969 77.316406 57.320312 77.535156 57.601562 77.671875 C 57.617188 77.679688 58.25 77.988281 58.84375 78.253906 C 59.171875 78.40625 59.492188 78.542969 59.683594 78.617188 C 59.691406 78.617188 59.699219 78.625 59.707031 78.632812 C 59.707031 78.632812 60.019531 79.019531 59.96875 79.398438 C 59.9375 79.613281 59.796875 79.832031 59.417969 79.976562 C 59.199219 80.0625 58.910156 80.097656 58.589844 80.105469 C 57.46875 80.132812 55.910156 79.796875 55.328125 79.972656 C 55.324219 79.972656 55.324219 79.972656 55.324219 79.972656 C 55.324219 79.972656 53.980469 80.308594 53.203125 80.121094 C 52.835938 80.035156 52.589844 79.835938 52.632812 79.457031 C 52.632812 79.453125 52.632812 79.453125 52.632812 79.449219 C 52.632812 79.449219 52.988281 78.015625 53.175781 76.691406 C 53.28125 75.945312 53.335938 75.234375 53.242188 74.835938 C 53.242188 74.832031 53.242188 74.832031 53.242188 74.832031 C 53.242188 74.832031 53.070312 73.363281 53.066406 71.964844 C 53.066406 71.25 53.113281 70.550781 53.246094 70.070312 C 53.179688 69.988281 52.804688 69.496094 52.390625 68.820312 C 52.148438 68.429688 51.898438 67.976562 51.683594 67.507812 C 50.683594 68.484375 49.058594 69.503906 47.445312 70.34375 C 45.390625 71.414062 43.355469 72.1875 42.667969 72.203125 C 42.613281 72.246094 42.335938 72.457031 42.070312 72.765625 C 41.902344 72.964844 41.734375 73.207031 41.628906 73.464844 C 41.628906 73.46875 41.628906 73.46875 41.628906 73.46875 C 41.628906 73.46875 41.296875 74.15625 41.113281 74.792969 C 41.007812 75.160156 40.945312 75.511719 41.039062 75.691406 C 41.042969 75.695312 41.316406 76.207031 41.492188 76.601562 C 41.578125 76.792969 41.636719 76.960938 41.636719 77.03125 C 41.636719 77.03125 41.636719 77.03125 41.636719 77.035156 C 41.636719 77.035156 41.617188 77.503906 41.1875 77.742188 C 40.941406 77.878906 40.550781 77.941406 39.945312 77.777344 C 39.9375 77.773438 39.929688 77.769531 39.921875 77.765625 C 39.921875 77.765625 39.144531 77.074219 38.582031 76.320312 C 38.273438 75.910156 38.035156 75.476562 38.019531 75.125 C 38.015625 75.117188 38.019531 75.109375 38.019531 75.101562 C 38.019531 75.101562 38.175781 74.675781 37.957031 74.191406 C 37.851562 73.960938 37.664062 73.714844 37.335938 73.5 C 37.332031 73.496094 37.328125 73.492188 37.324219 73.488281 C 37.324219 73.488281 36.40625 72.421875 36.285156 71.585938 C 36.25 71.363281 36.273438 71.160156 36.375 70.988281 C 36.5 70.785156 36.742188 70.632812 37.160156 70.574219 C 37.164062 70.574219 37.167969 70.574219 37.171875 70.574219 C 37.171875 70.574219 38.238281 70.628906 39.214844 70.460938 C 39.703125 70.378906 40.171875 70.242188 40.46875 70.011719 C 40.46875 70.011719 44.167969 67.238281 46.65625 64.980469 C 47.480469 64.234375 48.171875 63.542969 48.550781 63.03125 C 48.71875 62.800781 48.824219 62.609375 48.84375 62.464844 C 48.84375 62.464844 48.890625 62.132812 48.632812 61.605469 C 48.484375 61.304688 48.242188 60.945312 47.839844 60.546875 C 47.832031 60.578125 47.824219 60.617188 47.816406 60.648438 C 47.777344 60.871094 47.738281 61.199219 47.664062 61.332031 C 47.625 61.398438 47.574219 61.429688 47.523438 61.433594 C 47.539062 61.523438 47.554688 61.636719 47.558594 61.746094 C 47.5625 61.894531 47.542969 62.03125 47.492188 62.113281 C 47.433594 62.203125 47.34375 62.246094 47.199219 62.199219 C 47.128906 62.175781 47.039062 62.125 46.925781 62.03125 C 46.808594 62.042969 46.457031 62.054688 46.117188 61.910156 C 45.894531 61.8125 45.675781 61.644531 45.535156 61.367188 C 45.472656 61.375 45.375 61.371094 45.277344 61.3125 C 45.207031 61.269531 45.132812 61.191406 45.078125 61.058594 C 45.078125 61.058594 44.882812 60.597656 44.878906 59.9375 C 44.878906 59.605469 44.925781 59.222656 45.070312 58.824219 C 45.078125 58.707031 45.15625 57.679688 45.164062 56.753906 C 45.171875 56.179688 45.152344 55.644531 45.070312 55.398438 C 45.058594 55.367188 44.945312 55.101562 44.867188 54.816406 C 44.835938 54.703125 44.808594 54.585938 44.796875 54.480469 C 44.59375 54.453125 44.027344 54.363281 43.515625 54.132812 C 43.210938 53.996094 42.925781 53.8125 42.742188 53.566406 C 42.675781 53.480469 42.59375 53.410156 42.5 53.359375 C 42.40625 53.3125 42.300781 53.28125 42.191406 53.277344 C 41.730469 53.261719 41.027344 53.152344 40.570312 52.734375 C 40.304688 52.496094 40.117188 52.15625 40.097656 51.671875 C 40.097656 51.671875 40.097656 51.667969 40.097656 51.667969 C 40.097656 51.667969 40.097656 51.378906 40.058594 51.09375 C 40.039062 50.964844 40.015625 50.832031 39.976562 50.734375 C 39.914062 50.566406 39.863281 50.398438 39.820312 50.222656 C 39.78125 50.050781 39.753906 49.875 39.738281 49.699219 L 39.722656 49.523438 C 39.714844 49.375 39.714844 49.226562 39.730469 49.082031 C 39.746094 48.933594 39.777344 48.789062 39.816406 48.648438 C 39.894531 48.382812 40 48.011719 40.09375 47.660156 C 40.15625 47.417969 40.214844 47.191406 40.257812 47.007812 C 40.257812 46.910156 40.277344 46.175781 40.363281 45.5 C 40.414062 45.09375 40.492188 44.710938 40.605469 44.492188 C 40.613281 44.476562 40.800781 44.074219 40.828125 43.65625 C 40.839844 43.472656 40.820312 43.28125 40.730469 43.121094 C 40.726562 43.117188 40.726562 43.113281 40.722656 43.109375 C 40.722656 43.109375 40.332031 42.054688 40.179688 41.0625 C 40.09375 40.5 40.089844 39.957031 40.261719 39.621094 C 40.371094 39.40625 40.445312 39.234375 40.496094 39.09375 C 40.574219 38.871094 40.59375 38.71875 40.613281 38.597656 C 40.636719 38.460938 40.65625 38.351562 40.726562 38.222656 C 40.730469 38.214844 40.738281 38.210938 40.742188 38.203125 C 40.742188 38.203125 41.613281 37.199219 43.105469 36.773438 C 43.875 36.550781 44.804688 36.484375 45.867188 36.785156 C 45.875 36.789062 45.882812 36.789062 45.890625 36.792969 C 45.890625 36.792969 46.371094 37.054688 46.929688 37.265625 C 47.167969 37.355469 47.417969 37.433594 47.648438 37.480469 C 47.816406 37.511719 47.984375 37.5 48.140625 37.449219 C 48.296875 37.394531 48.441406 37.304688 48.554688 37.179688 C 48.742188 36.976562 49.011719 36.695312 49.296875 36.453125 C 49.492188 36.289062 49.691406 36.144531 49.878906 36.046875 C 49.886719 36.042969 49.894531 36.039062 49.898438 36.035156 C 49.898438 36.035156 50.210938 35.949219 50.503906 35.949219 C 50.570312 35.949219 50.636719 35.953125 50.699219 35.964844 C 50.613281 35.640625 50.476562 35.019531 50.539062 34.476562 C 50.582031 34.070312 50.738281 33.710938 51.074219 33.519531 C 51.046875 33.394531 51.027344 33.171875 51.132812 32.914062 C 51.203125 32.742188 51.324219 32.554688 51.546875 32.371094 C 51.792969 32.164062 52.082031 32.019531 52.386719 31.945312 C 52.691406 31.871094 53.015625 31.867188 53.332031 31.941406 C 53.902344 32.070312 54.804688 32.246094 55.640625 32.261719 C 56.210938 32.273438 56.746094 32.214844 57.117188 32.007812 C 57.148438 31.992188 57.183594 31.992188 57.21875 32.003906 C 57.25 32.019531 57.277344 32.042969 57.285156 32.078125 C 57.285156 32.078125 57.449219 32.628906 57.261719 33.144531 C 57.160156 33.410156 56.972656 33.667969 56.621094 33.839844 C 56.730469 34.042969 56.941406 34.460938 56.996094 34.824219 C 57.027344 35.015625 57.011719 35.191406 56.933594 35.320312 C 56.984375 35.433594 57.105469 35.675781 57.246094 35.886719 C 57.335938 36.027344 57.433594 36.15625 57.53125 36.207031 C 57.601562 36.242188 57.652344 36.300781 57.679688 36.371094 C 57.710938 36.441406 57.714844 36.519531 57.6875 36.59375 C 57.667969 36.664062 57.621094 36.730469 57.546875 36.78125 C 57.488281 36.820312 57.410156 36.847656 57.296875 36.855469 C 57.277344 36.875 57.246094 36.90625 57.21875 36.941406 C 57.203125 36.957031 57.191406 36.976562 57.179688 36.996094 C 57.179688 37.003906 57.175781 37.011719 57.171875 37.015625 Z M 55.816406 40.980469 C 55.820312 40.980469 55.851562 40.988281 55.882812 40.964844 C 56.019531 40.933594 56.519531 40.859375 56.753906 41.324219 C 56.914062 41.636719 56.957031 42.160156 56.753906 43.039062 C 56.730469 43.101562 56.59375 43.480469 56.578125 43.90625 C 56.570312 44.109375 56.589844 44.320312 56.664062 44.511719 L 56.699219 44.636719 C 56.792969 45.042969 57.230469 47.074219 57.425781 48.632812 C 57.523438 49.402344 57.570312 50.054688 57.472656 50.320312 C 57.460938 50.347656 57.464844 50.378906 57.476562 50.40625 C 57.476562 50.40625 58.300781 51.972656 58.695312 53.167969 C 58.804688 53.496094 58.878906 53.800781 58.894531 54.027344 C 58.902344 54.160156 58.894531 54.265625 58.839844 54.324219 C 58.824219 54.34375 58.816406 54.367188 58.816406 54.394531 C 58.816406 54.394531 58.808594 54.960938 58.957031 55.460938 C 59.035156 55.726562 59.152344 55.96875 59.332031 56.113281 C 59.332031 56.113281 59.472656 56.222656 59.636719 56.378906 C 59.726562 56.464844 59.828125 56.566406 59.914062 56.667969 C 59.976562 56.742188 60.023438 56.828125 60.054688 56.917969 C 60.085938 57.011719 60.101562 57.109375 60.097656 57.207031 L 60.070312 57.890625 C 60.066406 57.960938 60.050781 58.03125 60.027344 58.097656 C 60 58.164062 59.964844 58.226562 59.917969 58.28125 C 59.738281 58.492188 59.4375 58.832031 59.167969 59.054688 C 59.070312 59.140625 58.972656 59.210938 58.894531 59.246094 C 58.871094 59.253906 58.851562 59.261719 58.832031 59.265625 C 58.820312 59.265625 58.8125 59.269531 58.804688 59.265625 C 58.800781 59.261719 58.796875 59.253906 58.792969 59.246094 C 58.789062 59.230469 58.785156 59.210938 58.78125 59.1875 C 58.777344 59.15625 58.761719 59.132812 58.738281 59.113281 C 58.714844 59.097656 58.6875 59.089844 58.65625 59.097656 C 58.65625 59.097656 58.15625 59.230469 57.835938 59.167969 C 57.753906 59.152344 57.6875 59.128906 57.652344 59.078125 C 57.628906 59.039062 57.628906 58.988281 57.652344 58.917969 C 57.785156 58.859375 58.203125 58.652344 58.421875 58.34375 C 58.558594 58.148438 58.621094 57.910156 58.5 57.644531 C 58.496094 57.636719 58.492188 57.628906 58.484375 57.621094 C 58.484375 57.621094 58.113281 57.207031 57.914062 56.800781 C 57.855469 56.675781 57.808594 56.554688 57.800781 56.445312 C 57.796875 56.375 57.808594 56.308594 57.851562 56.261719 C 57.867188 56.242188 57.878906 56.214844 57.875 56.1875 C 57.871094 56.160156 57.855469 56.136719 57.832031 56.121094 C 57.832031 56.121094 57.433594 55.847656 57.167969 55.4375 C 57.058594 55.265625 56.976562 55.074219 56.957031 54.863281 C 56.953125 54.84375 56.945312 54.824219 56.933594 54.808594 C 56.933594 54.808594 56.566406 54.414062 56.25 54.203125 C 56.152344 54.140625 56.058594 54.09375 55.980469 54.074219 C 55.917969 54.058594 55.863281 54.0625 55.816406 54.082031 C 55.8125 54.082031 55.8125 54.082031 55.8125 54.082031 C 55.789062 54.09375 55.769531 54.105469 55.753906 54.125 C 55.738281 54.144531 55.726562 54.164062 55.722656 54.191406 C 55.699219 54.28125 55.609375 54.632812 55.5 54.917969 C 55.457031 55.039062 55.40625 55.148438 55.355469 55.222656 C 55.34375 55.238281 55.332031 55.253906 55.320312 55.265625 C 55.316406 55.269531 55.308594 55.273438 55.308594 55.277344 C 55.285156 55.277344 55.261719 55.289062 55.246094 55.304688 C 55.230469 55.324219 55.21875 55.347656 55.222656 55.371094 C 55.222656 55.371094 55.308594 56.347656 55.351562 57.355469 C 55.371094 57.820312 55.378906 58.289062 55.371094 58.675781 C 55.359375 59.019531 55.382812 59.367188 55.445312 59.707031 C 55.507812 60.042969 55.601562 60.378906 55.734375 60.695312 C 56.367188 62.238281 57.402344 65.152344 57.585938 68.121094 C 57.695312 69.851562 57.519531 71.601562 56.800781 73.113281 C 56.800781 73.113281 56.800781 73.117188 56.800781 73.117188 C 56.800781 73.117188 56.378906 74.316406 56.207031 75.257812 C 56.128906 75.664062 56.105469 76.023438 56.171875 76.226562 C 56.285156 76.558594 56.476562 76.871094 56.710938 77.132812 C 56.960938 77.410156 57.253906 77.636719 57.546875 77.78125 C 57.546875 77.78125 58.191406 78.089844 58.792969 78.363281 C 59.121094 78.507812 59.433594 78.644531 59.628906 78.71875 C 59.675781 78.78125 59.894531 79.082031 59.855469 79.382812 C 59.832031 79.566406 59.703125 79.75 59.378906 79.875 C 59.167969 79.953125 58.894531 79.988281 58.585938 79.996094 C 57.457031 80.027344 55.886719 79.699219 55.300781 79.878906 C 55.25 79.890625 53.972656 80.207031 53.222656 80.03125 C 52.910156 79.957031 52.691406 79.792969 52.722656 79.46875 C 52.742188 79.394531 53.082031 77.996094 53.261719 76.699219 C 53.367188 75.945312 53.414062 75.226562 53.320312 74.820312 C 53.3125 74.753906 53.144531 73.328125 53.136719 71.960938 C 53.132812 71.246094 53.175781 70.550781 53.3125 70.074219 C 53.316406 70.0625 53.3125 70.050781 53.304688 70.042969 C 53.304688 70.042969 52.898438 69.527344 52.441406 68.789062 C 52.195312 68.394531 51.933594 67.929688 51.714844 67.449219 C 51.714844 67.441406 51.707031 67.433594 51.695312 67.433594 C 51.6875 67.429688 51.679688 67.433594 51.671875 67.441406 C 50.675781 68.421875 49.039062 69.445312 47.414062 70.285156 C 45.355469 71.347656 43.320312 72.117188 42.652344 72.121094 C 42.644531 72.121094 42.636719 72.125 42.628906 72.128906 C 42.628906 72.128906 42.3125 72.355469 42.007812 72.710938 C 41.832031 72.917969 41.660156 73.164062 41.550781 73.433594 C 41.53125 73.472656 41.121094 74.320312 40.964844 75 C 40.894531 75.304688 40.875 75.578125 40.957031 75.734375 C 40.957031 75.734375 41.230469 76.246094 41.40625 76.640625 C 41.480469 76.816406 41.539062 76.964844 41.542969 77.03125 C 41.539062 77.054688 41.511719 77.453125 41.140625 77.65625 C 40.910156 77.785156 40.546875 77.835938 39.980469 77.679688 C 39.894531 77.601562 39.1875 76.957031 38.667969 76.257812 C 38.378906 75.867188 38.148438 75.460938 38.128906 75.128906 C 38.152344 75.054688 38.273438 74.628906 38.058594 74.144531 C 37.949219 73.898438 37.753906 73.640625 37.410156 73.40625 C 37.335938 73.324219 36.515625 72.34375 36.402344 71.570312 C 36.375 71.378906 36.390625 71.199219 36.480469 71.054688 C 36.589844 70.875 36.804688 70.746094 37.171875 70.699219 C 37.257812 70.703125 38.285156 70.746094 39.238281 70.589844 C 39.75 70.503906 40.238281 70.355469 40.550781 70.117188 C 40.582031 70.09375 44.269531 67.339844 46.757812 65.09375 C 47.59375 64.339844 48.292969 63.644531 48.675781 63.125 C 48.867188 62.867188 48.980469 62.644531 49 62.488281 C 49.003906 62.464844 49.050781 62.101562 48.777344 61.535156 C 48.621094 61.214844 48.359375 60.824219 47.921875 60.394531 C 47.886719 60.351562 47.851562 60.339844 47.824219 60.335938 C 47.785156 60.335938 47.730469 60.363281 47.699219 60.441406 C 47.644531 60.582031 47.617188 60.976562 47.542969 61.1875 C 47.535156 61.210938 47.519531 61.242188 47.511719 61.257812 C 47.5 61.246094 47.488281 61.230469 47.476562 61.214844 C 47.449219 61.183594 47.410156 61.171875 47.371094 61.1875 C 47.335938 61.207031 47.316406 61.246094 47.324219 61.285156 C 47.324219 61.285156 47.382812 61.527344 47.390625 61.753906 C 47.394531 61.859375 47.386719 61.960938 47.347656 62.019531 C 47.328125 62.050781 47.300781 62.054688 47.253906 62.039062 C 47.191406 62.019531 47.109375 61.964844 47.011719 61.878906 C 46.992188 61.863281 46.964844 61.855469 46.941406 61.859375 C 46.941406 61.859375 46.554688 61.910156 46.183594 61.75 C 45.980469 61.660156 45.78125 61.503906 45.664062 61.230469 C 45.644531 61.1875 45.597656 61.167969 45.550781 61.183594 C 45.550781 61.183594 45.460938 61.21875 45.367188 61.164062 C 45.320312 61.132812 45.277344 61.082031 45.238281 60.992188 C 45.230469 60.976562 45.058594 60.546875 45.054688 59.933594 C 45.054688 59.621094 45.101562 59.257812 45.242188 58.878906 C 45.246094 58.867188 45.246094 58.863281 45.246094 58.851562 C 45.246094 58.851562 45.359375 57.464844 45.351562 56.402344 C 45.34375 55.941406 45.316406 55.542969 45.246094 55.335938 C 45.246094 55.332031 45.246094 55.332031 45.242188 55.328125 C 45.242188 55.328125 45.128906 55.058594 45.046875 54.765625 C 45.011719 54.636719 44.984375 54.503906 44.976562 54.386719 C 44.972656 54.34375 44.9375 54.304688 44.890625 54.300781 C 44.890625 54.300781 44.199219 54.234375 43.59375 53.960938 C 43.320312 53.835938 43.0625 53.671875 42.898438 53.449219 C 42.816406 53.339844 42.710938 53.25 42.589844 53.1875 C 42.472656 53.125 42.339844 53.089844 42.199219 53.085938 C 41.839844 53.070312 41.320312 53 40.910156 52.746094 C 40.574219 52.539062 40.320312 52.203125 40.292969 51.664062 C 40.292969 51.640625 40.292969 51.351562 40.253906 51.066406 C 40.234375 50.921875 40.207031 50.773438 40.164062 50.664062 C 40.105469 50.503906 40.054688 50.34375 40.019531 50.179688 C 39.980469 50.015625 39.953125 49.847656 39.9375 49.679688 L 39.925781 49.507812 C 39.917969 49.371094 39.917969 49.238281 39.933594 49.101562 C 39.949219 48.96875 39.976562 48.835938 40.011719 48.703125 C 40.089844 48.4375 40.195312 48.066406 40.292969 47.710938 C 40.355469 47.464844 40.417969 47.226562 40.460938 47.042969 C 40.460938 47.035156 40.460938 47.027344 40.460938 47.023438 C 40.460938 47.023438 40.476562 46.242188 40.570312 45.527344 C 40.621094 45.148438 40.691406 44.789062 40.792969 44.585938 C 40.792969 44.585938 41.011719 44.136719 41.039062 43.667969 C 41.054688 43.445312 41.027344 43.21875 40.921875 43.027344 C 40.886719 42.933594 40.535156 41.957031 40.394531 41.03125 C 40.316406 40.519531 40.300781 40.023438 40.457031 39.71875 C 40.570312 39.496094 40.648438 39.316406 40.699219 39.167969 C 40.785156 38.925781 40.808594 38.761719 40.832031 38.628906 C 40.847656 38.523438 40.859375 38.4375 40.914062 38.339844 C 41 38.246094 41.820312 37.371094 43.167969 36.988281 C 43.898438 36.777344 44.785156 36.714844 45.792969 37 C 45.871094 37.039062 46.328125 37.28125 46.851562 37.476562 C 47.097656 37.570312 47.363281 37.65625 47.605469 37.703125 C 47.8125 37.742188 48.019531 37.730469 48.214844 37.664062 C 48.40625 37.601562 48.582031 37.488281 48.722656 37.335938 C 48.90625 37.136719 49.167969 36.863281 49.445312 36.628906 C 49.621094 36.480469 49.804688 36.347656 49.972656 36.257812 C 50.027344 36.242188 50.269531 36.179688 50.503906 36.179688 C 50.617188 36.179688 50.730469 36.191406 50.808594 36.242188 C 50.851562 36.273438 50.902344 36.269531 50.945312 36.242188 C 50.984375 36.210938 51 36.160156 50.984375 36.109375 C 50.984375 36.109375 50.683594 35.234375 50.769531 34.503906 C 50.808594 34.148438 50.9375 33.828125 51.261719 33.683594 C 51.320312 33.660156 51.347656 33.589844 51.320312 33.53125 C 51.320312 33.53125 51.226562 33.300781 51.347656 33.003906 C 51.40625 32.859375 51.511719 32.703125 51.695312 32.550781 C 51.914062 32.363281 52.171875 32.238281 52.441406 32.171875 C 52.710938 32.105469 53 32.105469 53.277344 32.167969 C 53.863281 32.304688 54.785156 32.480469 55.636719 32.496094 C 56.183594 32.507812 56.699219 32.453125 57.089844 32.285156 C 57.121094 32.457031 57.148438 32.765625 57.039062 33.0625 C 56.949219 33.304688 56.765625 33.539062 56.410156 33.675781 C 56.378906 33.6875 56.351562 33.714844 56.339844 33.746094 C 56.332031 33.78125 56.335938 33.816406 56.351562 33.847656 C 56.351562 33.847656 56.621094 34.292969 56.730469 34.710938 C 56.761719 34.832031 56.78125 34.953125 56.773438 35.058594 C 56.765625 35.125 56.75 35.183594 56.707031 35.230469 C 56.679688 35.265625 56.671875 35.3125 56.691406 35.355469 C 56.691406 35.355469 56.847656 35.71875 57.050781 36.019531 C 57.167969 36.195312 57.300781 36.347656 57.421875 36.414062 C 57.441406 36.425781 57.457031 36.441406 57.464844 36.460938 C 57.472656 36.476562 57.472656 36.5 57.464844 36.523438 C 57.457031 36.550781 57.433594 36.578125 57.398438 36.59375 C 57.363281 36.613281 57.3125 36.621094 57.25 36.621094 C 57.222656 36.621094 57.199219 36.628906 57.175781 36.648438 C 57.175781 36.648438 56.988281 36.8125 56.945312 36.953125 C 56.917969 37.042969 56.933594 37.128906 57.015625 37.191406 C 57.035156 37.214844 57.085938 37.277344 57.09375 37.339844 C 57.097656 37.347656 57.097656 37.351562 57.09375 37.359375 C 57.085938 37.371094 57.070312 37.375 57.042969 37.382812 C 57.007812 37.394531 56.976562 37.421875 56.960938 37.460938 C 56.949219 37.496094 56.957031 37.539062 56.980469 37.570312 C 56.980469 37.570312 57.058594 37.664062 57.078125 37.761719 C 57.082031 37.78125 57.082031 37.804688 57.074219 37.820312 C 57.066406 37.835938 57.050781 37.847656 57.027344 37.855469 C 56.996094 37.871094 56.972656 37.894531 56.964844 37.925781 C 56.953125 37.957031 56.957031 37.992188 56.972656 38.019531 C 56.972656 38.019531 57.113281 38.273438 57.074219 38.480469 C 57.058594 38.554688 57.019531 38.617188 56.929688 38.652344 C 56.824219 38.65625 56.300781 38.695312 55.917969 38.8125 C 55.71875 38.871094 55.558594 38.960938 55.484375 39.066406 L 55.222656 39.398438 C 55.183594 39.445312 55.191406 39.519531 55.238281 39.558594 C 55.238281 39.558594 55.421875 39.710938 55.558594 39.933594 C 55.632812 40.058594 55.699219 40.210938 55.699219 40.371094 C 55.699219 40.636719 55.699219 40.757812 55.699219 40.816406 C 55.699219 41.015625 55.8125 40.976562 55.8125 40.976562 Z M 55.816406 40.980469 "/>
</g>
<path style=" stroke:none;fill-rule:nonzero;fill:rgb(21.960784%,71.372549%,100%);fill-opacity:1;" d="M 8.515625 77.652344 L 11.792969 77.652344 L 12.132812 77.40625 L 12.652344 77.589844 C 12.746094 77.558594 12.804688 77.5 12.898438 77.4375 L 14.308594 77.4375 C 14.460938 77.285156 14.582031 77.160156 14.703125 77.070312 C 14.796875 77.132812 14.917969 77.191406 14.980469 77.285156 C 15.195312 77.160156 15.347656 77.101562 15.347656 77.101562 C 15.808594 76.640625 16.113281 76.335938 16.480469 75.996094 C 16.480469 75.9375 16.449219 75.8125 16.542969 75.660156 C 16.421875 75.628906 16.328125 75.601562 16.054688 75.570312 C 16.023438 75.539062 15.960938 75.355469 15.871094 75.230469 L 14.613281 75.230469 L 14.429688 75.414062 L 13.386719 75.414062 C 13.296875 75.507812 13.265625 75.570312 13.203125 75.601562 L 11.398438 75.601562 C 11.367188 75.601562 11.335938 75.660156 11.304688 75.691406 C 11.273438 75.722656 11.214844 75.753906 11.089844 75.8125 C 11.089844 75.753906 11.027344 75.691406 10.9375 75.601562 L 9.742188 75.601562 C 9.652344 75.507812 9.558594 75.414062 9.4375 75.324219 C 9.46875 74.589844 9.558594 73.914062 9.589844 73.210938 C 9.589844 73.117188 9.652344 73.058594 9.652344 73.027344 C 9.710938 72.964844 9.742188 72.902344 9.804688 72.871094 C 9.804688 72.597656 9.835938 72.320312 9.894531 72.078125 C 9.957031 71.984375 10.046875 71.894531 10.078125 71.863281 C 10.078125 71.585938 10.171875 71.402344 10.292969 71.21875 C 10.386719 71.066406 10.324219 70.851562 10.507812 70.667969 C 10.691406 70.515625 10.539062 70.179688 10.8125 70.054688 C 10.84375 69.839844 10.785156 69.566406 11.058594 69.414062 C 11.058594 69.105469 11.152344 68.769531 11.152344 68.460938 C 11.304688 68.1875 11.429688 68.003906 11.609375 67.757812 C 11.609375 67.300781 11.703125 66.808594 11.703125 66.378906 L 11.886719 66.195312 C 11.917969 65.917969 11.917969 65.644531 11.917969 65.367188 C 12.070312 65.277344 12.132812 65.246094 12.222656 65.152344 C 12.222656 64.816406 12.222656 64.480469 12.253906 64.113281 L 12.46875 63.898438 C 12.5625 63.316406 12.5625 62.703125 12.589844 62.089844 L 12.773438 61.90625 C 12.867188 61.539062 12.867188 61.171875 12.867188 60.804688 C 12.898438 60.742188 12.867188 60.683594 12.835938 60.621094 C 12.773438 60.589844 12.746094 60.527344 12.714844 60.46875 C 12.773438 60.40625 12.835938 60.34375 12.898438 60.253906 C 12.898438 60.039062 12.988281 59.855469 12.988281 59.640625 C 13.050781 59.609375 13.082031 59.550781 13.171875 59.457031 C 13.203125 58.875 13.265625 58.261719 13.296875 57.679688 L 13.511719 57.433594 C 13.449219 57.3125 13.386719 57.28125 13.355469 57.222656 C 13.417969 57.128906 13.480469 57.097656 13.542969 57.035156 C 13.480469 56.945312 13.417969 56.914062 13.355469 56.824219 C 13.355469 56.609375 13.417969 56.425781 13.449219 56.210938 C 13.480469 56.148438 13.570312 56.085938 13.632812 55.996094 C 13.570312 55.933594 13.511719 55.871094 13.449219 55.78125 C 13.542969 55.75 13.570312 55.691406 13.664062 55.597656 C 13.695312 55.351562 13.695312 55.046875 13.695312 54.769531 C 13.847656 54.710938 13.878906 54.648438 13.9375 54.585938 C 13.96875 53.515625 14.0625 52.410156 14.09375 51.402344 C 14.0625 51.1875 14 51.09375 13.9375 50.878906 C 13.386719 50.296875 12.746094 49.683594 12.164062 48.980469 L 12.007812 48.980469 L 11.609375 48.613281 L 10.785156 48.613281 C 10.753906 48.613281 10.722656 48.644531 10.660156 48.734375 C 10.660156 48.917969 10.660156 49.132812 10.632812 49.347656 C 10.570312 49.410156 10.507812 49.472656 10.386719 49.503906 C 10.386719 49.714844 10.386719 49.929688 10.355469 50.113281 C 10.324219 50.175781 10.234375 50.269531 10.140625 50.328125 L 10.140625 50.726562 C 10.078125 50.820312 9.988281 50.878906 9.925781 50.972656 C 9.835938 51.371094 9.835938 51.769531 9.804688 52.167969 L 9.621094 52.351562 C 9.621094 52.65625 9.527344 53.023438 9.527344 53.363281 C 9.4375 53.453125 9.375 53.484375 9.3125 53.605469 C 9.28125 53.820312 9.28125 54.128906 9.28125 54.371094 L 9.070312 54.585938 C 8.976562 54.863281 8.976562 55.167969 8.976562 55.414062 C 8.886719 55.503906 8.824219 55.566406 8.761719 55.597656 C 8.761719 55.933594 8.761719 56.269531 8.671875 56.609375 C 8.609375 56.699219 8.546875 56.761719 8.457031 56.851562 C 8.457031 57.097656 8.425781 57.375 8.425781 57.648438 L 8.210938 57.894531 C 8.210938 58.261719 8.121094 58.660156 8.121094 59.058594 C 8.058594 59.121094 7.996094 59.179688 7.90625 59.242188 C 7.90625 59.578125 7.90625 59.945312 7.8125 60.253906 C 7.75 60.375 7.691406 60.40625 7.597656 60.496094 C 7.597656 60.867188 7.566406 61.324219 7.566406 61.722656 C 7.414062 61.785156 7.355469 61.847656 7.292969 61.878906 C 7.261719 62.367188 7.292969 62.886719 7.230469 63.316406 C 7.140625 63.4375 7.078125 63.5 6.984375 63.53125 C 6.953125 63.929688 6.953125 64.328125 6.925781 64.726562 C 6.863281 64.816406 6.800781 64.878906 6.710938 64.972656 C 6.617188 65.582031 6.617188 66.195312 6.585938 66.777344 L 6.375 67.023438 C 6.28125 67.757812 6.25 68.492188 6.160156 69.226562 C 6.128906 69.289062 6.066406 69.351562 5.976562 69.414062 C 5.945312 70.332031 5.851562 71.3125 5.820312 72.261719 C 5.667969 72.351562 5.605469 72.382812 5.578125 72.445312 C 5.546875 72.660156 5.546875 72.871094 5.546875 73.058594 C 5.605469 73.210938 5.699219 73.273438 5.761719 73.394531 C 5.699219 73.488281 5.605469 73.609375 5.484375 73.699219 C 5.484375 73.824219 5.484375 73.945312 5.421875 74.097656 C 5.484375 74.160156 5.546875 74.222656 5.605469 74.3125 C 5.605469 74.648438 5.605469 74.988281 5.578125 75.261719 C 5.699219 75.507812 5.851562 75.691406 5.882812 75.875 C 5.914062 75.964844 5.914062 76.058594 5.945312 76.152344 L 6.558594 76.792969 C 6.710938 76.824219 6.832031 76.917969 6.984375 77.007812 C 7.109375 77.101562 7.261719 77.132812 7.382812 77.222656 C 7.507812 77.316406 7.71875 77.253906 7.8125 77.285156 L 7.996094 77.46875 L 8.394531 77.46875 C 8.457031 77.5 8.488281 77.589844 8.515625 77.652344 Z M 8.515625 77.652344 "/>
<path style=" stroke:none;fill-rule:nonzero;fill:rgb(21.960784%,71.372549%,100%);fill-opacity:1;" d="M 29.285156 77.285156 L 29.621094 76.976562 L 30.664062 76.976562 C 30.878906 76.734375 31.089844 76.457031 31.242188 76.304688 L 31.734375 76.152344 C 31.734375 76.058594 32.347656 75.199219 32.378906 75.109375 C 32.5625 74.925781 32.777344 74.558594 32.992188 74.34375 C 33.175781 74.128906 33.265625 73.792969 33.570312 73.640625 C 33.910156 73.363281 33.847656 72.964844 34.214844 72.566406 C 34.398438 72.320312 34.675781 71.648438 34.859375 71.527344 C 34.890625 71.464844 35.257812 70.515625 35.378906 70.546875 C 35.714844 69.808594 35.289062 69.566406 34.796875 69.414062 C 34.277344 69.414062 34.398438 70.054688 33.816406 70.757812 C 33.265625 71.371094 32.804688 72.167969 32.777344 72.199219 C 32.53125 72.71875 31.917969 73.546875 31.613281 73.945312 C 31.273438 74.375 30.816406 75.046875 30.355469 75.046875 C 30.234375 75.230469 29.710938 75.046875 29.496094 74.925781 L 29.496094 71.066406 C 29.589844 71.003906 29.652344 70.972656 29.742188 70.851562 L 29.742188 69.136719 C 29.925781 68.921875 30.109375 68.769531 30.234375 68.644531 L 30.234375 67.878906 C 30.324219 67.789062 30.417969 67.695312 30.476562 67.605469 L 30.476562 67.144531 L 30.753906 66.839844 L 30.753906 65.613281 C 30.9375 65.308594 31.457031 63.746094 31.488281 63.410156 C 31.550781 63.316406 31.644531 63.195312 31.734375 63.101562 L 31.734375 61.90625 C 31.917969 61.722656 32.070312 61.507812 32.222656 61.386719 L 32.222656 59.640625 C 31.917969 59.363281 31.980469 58.90625 31.550781 58.753906 L 30.9375 58.753906 L 30.203125 58.015625 L 29.835938 58.015625 C 29.683594 57.617188 29.191406 57.558594 28.886719 57.28125 L 28.242188 57.617188 L 28.242188 57.957031 C 28.363281 58.078125 28.578125 58.199219 28.730469 58.324219 C 28.425781 58.785156 28.210938 59.210938 28.179688 59.703125 C 28.058594 59.824219 27.875 59.976562 27.753906 60.128906 C 27.753906 60.34375 27.8125 60.34375 27.8125 60.558594 C 27.8125 60.710938 27.8125 60.710938 27.753906 60.742188 C 27.597656 60.804688 27.476562 60.898438 27.355469 60.957031 C 27.109375 60.804688 26.34375 60.683594 26.097656 60.496094 L 24.964844 60.496094 C 24.566406 60.496094 24.136719 60.40625 23.832031 60.773438 C 22.820312 61.019531 22.421875 61.265625 21.871094 61.785156 C 21.566406 62.089844 21.289062 62.398438 20.859375 62.613281 C 20.492188 62.796875 20.277344 63.195312 19.941406 63.46875 C 19.632812 63.683594 19.632812 64.082031 19.328125 64.359375 C 19.390625 64.785156 18.746094 64.910156 18.777344 65.339844 C 18.441406 65.738281 18.289062 66.226562 18.074219 66.683594 C 17.828125 67.144531 17.492188 67.605469 17.492188 68.1875 C 17.492188 68.246094 17.367188 68.308594 17.308594 68.371094 L 17.308594 68.859375 C 17.214844 68.921875 17.121094 69.011719 17.0625 69.136719 L 17.0625 69.871094 C 16.96875 69.964844 16.847656 70.023438 16.785156 70.117188 L 16.785156 71.894531 C 16.726562 71.953125 16.664062 71.984375 16.570312 72.078125 L 16.570312 74.621094 C 16.96875 75.019531 17 75.570312 17.335938 75.9375 C 17.734375 76.335938 17.949219 76.273438 18.316406 76.671875 C 18.472656 76.671875 18.898438 77.007812 19.144531 77.007812 C 19.269531 77.160156 19.972656 77.101562 20.125 77.222656 C 20.246094 77.222656 20.339844 77.253906 20.402344 77.222656 C 20.769531 77.160156 21.042969 76.945312 21.410156 76.917969 C 21.59375 76.886719 21.808594 76.703125 21.992188 76.582031 C 21.992188 76.519531 21.992188 76.394531 22.023438 76.335938 C 22.363281 76.027344 22.667969 75.691406 23.003906 75.355469 C 23.25 75.140625 23.496094 74.925781 23.679688 74.648438 C 23.863281 74.40625 23.894531 74.066406 24.046875 73.792969 C 24.320312 73.425781 24.476562 72.933594 24.964844 72.71875 C 25.027344 72.75 25.117188 72.8125 25.210938 72.8125 C 25.210938 73.085938 25.242188 73.363281 25.242188 73.609375 C 25.363281 73.730469 25.457031 73.792969 25.515625 73.945312 L 25.515625 74.621094 C 25.667969 74.804688 25.945312 74.957031 25.976562 75.109375 C 26.007812 75.507812 26.34375 75.601562 26.496094 75.875 C 26.710938 76.242188 27.140625 76.179688 27.355469 76.457031 C 27.628906 76.425781 27.753906 76.640625 27.875 76.761719 C 27.996094 76.824219 28.089844 76.917969 28.179688 76.976562 L 28.792969 76.976562 C 29.007812 77.132812 29.160156 77.191406 29.285156 77.285156 Z M 20.644531 74.988281 L 20.125 74.988281 C 20.09375 74.925781 20.003906 74.832031 20.003906 74.773438 C 19.972656 74.066406 20.003906 73.300781 20.003906 72.597656 C 20.125 72.507812 20.1875 72.445312 20.246094 72.382812 L 20.246094 71.160156 C 20.308594 71.066406 20.402344 70.972656 20.492188 70.882812 L 20.492188 70.394531 C 20.554688 70.300781 20.675781 70.207031 20.769531 70.085938 L 20.769531 69.441406 C 20.921875 69.136719 21.074219 68.832031 21.257812 68.585938 L 21.257812 67.910156 C 21.320312 67.851562 21.382812 67.757812 21.441406 67.664062 C 21.65625 67.328125 21.6875 66.898438 21.960938 66.65625 C 21.902344 66.195312 22.421875 66.105469 22.515625 65.738281 C 22.605469 65.308594 23.035156 65.125 23.308594 64.816406 L 23.496094 64.542969 C 23.585938 64.296875 23.679688 64.113281 23.894531 63.714844 C 23.953125 63.652344 24.167969 63.5 24.351562 63.253906 C 24.535156 62.980469 24.933594 63.011719 25.148438 62.765625 C 25.300781 62.550781 25.609375 62.457031 25.882812 62.273438 L 26.863281 62.273438 C 26.988281 62.367188 26.988281 62.367188 26.742188 62.644531 C 26.894531 63.070312 26.402344 63.378906 26.496094 63.777344 C 26.3125 64.082031 26.160156 64.417969 25.976562 64.757812 L 26.222656 65.152344 L 26.222656 65.613281 C 26.160156 65.707031 26.097656 65.765625 26.007812 65.859375 L 26.007812 66.871094 C 25.914062 66.929688 25.824219 67.054688 25.730469 67.144531 L 25.730469 68.644531 C 25.515625 68.859375 25.242188 69.074219 25.027344 69.351562 L 25.027344 69.777344 C 24.902344 70.117188 24.445312 70.207031 24.503906 70.605469 C 24.320312 70.851562 23.953125 71.003906 23.984375 71.402344 C 23.710938 71.617188 23.496094 71.863281 23.28125 72.078125 C 23.308594 72.476562 22.941406 72.628906 22.757812 72.871094 C 22.515625 73.117188 22.269531 73.363281 22.023438 73.578125 L 21.320312 74.28125 C 21.074219 74.527344 20.859375 74.742188 20.644531 74.988281 Z M 20.644531 74.988281 "/>
<path style=" stroke:none;fill-rule:nonzero;fill:rgb(21.960784%,71.372549%,100%);fill-opacity:1;" d="M 6.363281 80.125 L 11.363281 80.125 C 11.429688 80.125 11.496094 80.136719 11.554688 80.164062 C 11.617188 80.1875 11.671875 80.226562 11.71875 80.273438 C 11.765625 80.320312 11.800781 80.371094 11.824219 80.433594 C 11.851562 80.496094 11.863281 80.558594 11.863281 80.625 C 11.863281 80.691406 11.851562 80.753906 11.824219 80.816406 C 11.800781 80.878906 11.765625 80.929688 11.71875 80.976562 C 11.671875 81.023438 11.617188 81.0625 11.554688 81.085938 C 11.496094 81.113281 11.429688 81.125 11.363281 81.125 L 6.363281 81.125 C 6.296875 81.125 6.234375 81.113281 6.171875 81.085938 C 6.113281 81.0625 6.058594 81.023438 6.011719 80.976562 C 5.964844 80.929688 5.929688 80.878906 5.902344 80.816406 C 5.878906 80.753906 5.863281 80.691406 5.863281 80.625 C 5.863281 80.558594 5.878906 80.496094 5.902344 80.433594 C 5.929688 80.371094 5.964844 80.320312 6.011719 80.273438 C 6.058594 80.226562 6.113281 80.1875 6.171875 80.164062 C 6.234375 80.136719 6.296875 80.125 6.363281 80.125 Z M 13.363281 80.125 L 18.363281 80.125 C 18.429688 80.125 18.496094 80.136719 18.554688 80.164062 C 18.617188 80.1875 18.671875 80.226562 18.71875 80.273438 C 18.765625 80.320312 18.800781 80.371094 18.824219 80.433594 C 18.851562 80.496094 18.863281 80.558594 18.863281 80.625 C 18.863281 80.691406 18.851562 80.753906 18.824219 80.816406 C 18.800781 80.878906 18.765625 80.929688 18.71875 80.976562 C 18.671875 81.023438 18.617188 81.0625 18.554688 81.085938 C 18.496094 81.113281 18.429688 81.125 18.363281 81.125 L 13.363281 81.125 C 13.296875 81.125 13.234375 81.113281 13.171875 81.085938 C 13.113281 81.0625 13.058594 81.023438 13.011719 80.976562 C 12.964844 80.929688 12.929688 80.878906 12.902344 80.816406 C 12.878906 80.753906 12.863281 80.691406 12.863281 80.625 C 12.863281 80.558594 12.878906 80.496094 12.902344 80.433594 C 12.929688 80.371094 12.964844 80.320312 13.011719 80.273438 C 13.058594 80.226562 13.113281 80.1875 13.171875 80.164062 C 13.234375 80.136719 13.296875 80.125 13.363281 80.125 Z M 20.363281 80.125 L 25.363281 80.125 C 25.429688 80.125 25.496094 80.136719 25.554688 80.164062 C 25.617188 80.1875 25.671875 80.226562 25.71875 80.273438 C 25.765625 80.320312 25.800781 80.371094 25.824219 80.433594 C 25.851562 80.496094 25.863281 80.558594 25.863281 80.625 C 25.863281 80.691406 25.851562 80.753906 25.824219 80.816406 C 25.800781 80.878906 25.765625 80.929688 25.71875 80.976562 C 25.671875 81.023438 25.617188 81.0625 25.554688 81.085938 C 25.496094 81.113281 25.429688 81.125 25.363281 81.125 L 20.363281 81.125 C 20.296875 81.125 20.234375 81.113281 20.171875 81.085938 C 20.113281 81.0625 20.058594 81.023438 20.011719 80.976562 C 19.964844 80.929688 19.929688 80.878906 19.902344 80.816406 C 19.878906 80.753906 19.863281 80.691406 19.863281 80.625 C 19.863281 80.558594 19.878906 80.496094 19.902344 80.433594 C 19.929688 80.371094 19.964844 80.320312 20.011719 80.273438 C 20.058594 80.226562 20.113281 80.1875 20.171875 80.164062 C 20.234375 80.136719 20.296875 80.125 20.363281 80.125 Z M 27.363281 80.125 L 32.363281 80.125 C 32.429688 80.125 32.496094 80.136719 32.554688 80.164062 C 32.617188 80.1875 32.671875 80.226562 32.71875 80.273438 C 32.765625 80.320312 32.800781 80.371094 32.824219 80.433594 C 32.851562 80.496094 32.863281 80.558594 32.863281 80.625 C 32.863281 80.691406 32.851562 80.753906 32.824219 80.816406 C 32.800781 80.878906 32.765625 80.929688 32.71875 80.976562 C 32.671875 81.023438 32.617188 81.0625 32.554688 81.085938 C 32.496094 81.113281 32.429688 81.125 32.363281 81.125 L 27.363281 81.125 C 27.296875 81.125 27.234375 81.113281 27.171875 81.085938 C 27.113281 81.0625 27.058594 81.023438 27.011719 80.976562 C 26.964844 80.929688 26.929688 80.878906 26.902344 80.816406 C 26.878906 80.753906 26.863281 80.691406 26.863281 80.625 C 26.863281 80.558594 26.878906 80.496094 26.902344 80.433594 C 26.929688 80.371094 26.964844 80.320312 27.011719 80.273438 C 27.058594 80.226562 27.113281 80.1875 27.171875 80.164062 C 27.234375 80.136719 27.296875 80.125 27.363281 80.125 Z M 34.363281 80.125 L 39.363281 80.125 C 39.429688 80.125 39.496094 80.136719 39.554688 80.164062 C 39.617188 80.1875 39.671875 80.226562 39.71875 80.273438 C 39.765625 80.320312 39.800781 80.371094 39.824219 80.433594 C 39.851562 80.496094 39.863281 80.558594 39.863281 80.625 C 39.863281 80.691406 39.851562 80.753906 39.824219 80.816406 C 39.800781 80.878906 39.765625 80.929688 39.71875 80.976562 C 39.671875 81.023438 39.617188 81.0625 39.554688 81.085938 C 39.496094 81.113281 39.429688 81.125 39.363281 81.125 L 34.363281 81.125 C 34.296875 81.125 34.234375 81.113281 34.171875 81.085938 C 34.113281 81.0625 34.058594 81.023438 34.011719 80.976562 C 33.964844 80.929688 33.929688 80.878906 33.902344 80.816406 C 33.878906 80.753906 33.863281 80.691406 33.863281 80.625 C 33.863281 80.558594 33.878906 80.496094 33.902344 80.433594 C 33.929688 80.371094 33.964844 80.320312 34.011719 80.273438 C 34.058594 80.226562 34.113281 80.1875 34.171875 80.164062 C 34.234375 80.136719 34.296875 80.125 34.363281 80.125 Z M 41.363281 80.125 L 46.363281 80.125 C 46.429688 80.125 46.496094 80.136719 46.554688 80.164062 C 46.617188 80.1875 46.671875 80.226562 46.71875 80.273438 C 46.765625 80.320312 46.800781 80.371094 46.824219 80.433594 C 46.851562 80.496094 46.863281 80.558594 46.863281 80.625 C 46.863281 80.691406 46.851562 80.753906 46.824219 80.816406 C 46.800781 80.878906 46.765625 80.929688 46.71875 80.976562 C 46.671875 81.023438 46.617188 81.0625 46.554688 81.085938 C 46.496094 81.113281 46.429688 81.125 46.363281 81.125 L 41.363281 81.125 C 41.296875 81.125 41.234375 81.113281 41.171875 81.085938 C 41.113281 81.0625 41.058594 81.023438 41.011719 80.976562 C 40.964844 80.929688 40.929688 80.878906 40.902344 80.816406 C 40.878906 80.753906 40.863281 80.691406 40.863281 80.625 C 40.863281 80.558594 40.878906 80.496094 40.902344 80.433594 C 40.929688 80.371094 40.964844 80.320312 41.011719 80.273438 C 41.058594 80.226562 41.113281 80.1875 41.171875 80.164062 C 41.234375 80.136719 41.296875 80.125 41.363281 80.125 Z M 48.363281 80.125 L 53.363281 80.125 C 53.429688 80.125 53.496094 80.136719 53.554688 80.164062 C 53.617188 80.1875 53.671875 80.226562 53.71875 80.273438 C 53.765625 80.320312 53.800781 80.371094 53.824219 80.433594 C 53.851562 80.496094 53.863281 80.558594 53.863281 80.625 C 53.863281 80.691406 53.851562 80.753906 53.824219 80.816406 C 53.800781 80.878906 53.765625 80.929688 53.71875 80.976562 C 53.671875 81.023438 53.617188 81.0625 53.554688 81.085938 C 53.496094 81.113281 53.429688 81.125 53.363281 81.125 L 48.363281 81.125 C 48.296875 81.125 48.234375 81.113281 48.171875 81.085938 C 48.113281 81.0625 48.058594 81.023438 48.011719 80.976562 C 47.964844 80.929688 47.929688 80.878906 47.902344 80.816406 C 47.878906 80.753906 47.863281 80.691406 47.863281 80.625 C 47.863281 80.558594 47.878906 80.496094 47.902344 80.433594 C 47.929688 80.371094 47.964844 80.320312 48.011719 80.273438 C 48.058594 80.226562 48.113281 80.1875 48.171875 80.164062 C 48.234375 80.136719 48.296875 80.125 48.363281 80.125 Z M 55.363281 80.125 L 60.363281 80.125 C 60.429688 80.125 60.496094 80.136719 60.554688 80.164062 C 60.617188 80.1875 60.671875 80.226562 60.71875 80.273438 C 60.765625 80.320312 60.800781 80.371094 60.824219 80.433594 C 60.851562 80.496094 60.863281 80.558594 60.863281 80.625 C 60.863281 80.691406 60.851562 80.753906 60.824219 80.816406 C 60.800781 80.878906 60.765625 80.929688 60.71875 80.976562 C 60.671875 81.023438 60.617188 81.0625 60.554688 81.085938 C 60.496094 81.113281 60.429688 81.125 60.363281 81.125 L 55.363281 81.125 C 55.296875 81.125 55.234375 81.113281 55.171875 81.085938 C 55.113281 81.0625 55.058594 81.023438 55.011719 80.976562 C 54.964844 80.929688 54.929688 80.878906 54.902344 80.816406 C 54.878906 80.753906 54.863281 80.691406 54.863281 80.625 C 54.863281 80.558594 54.878906 80.496094 54.902344 80.433594 C 54.929688 80.371094 54.964844 80.320312 55.011719 80.273438 C 55.058594 80.226562 55.113281 80.1875 55.171875 80.164062 C 55.234375 80.136719 55.296875 80.125 55.363281 80.125 Z M 62.363281 80.125 L 67.363281 80.125 C 67.429688 80.125 67.496094 80.136719 67.554688 80.164062 C 67.617188 80.1875 67.671875 80.226562 67.71875 80.273438 C 67.765625 80.320312 67.800781 80.371094 67.824219 80.433594 C 67.851562 80.496094 67.863281 80.558594 67.863281 80.625 C 67.863281 80.691406 67.851562 80.753906 67.824219 80.816406 C 67.800781 80.878906 67.765625 80.929688 67.71875 80.976562 C 67.671875 81.023438 67.617188 81.0625 67.554688 81.085938 C 67.496094 81.113281 67.429688 81.125 67.363281 81.125 L 62.363281 81.125 C 62.296875 81.125 62.234375 81.113281 62.171875 81.085938 C 62.113281 81.0625 62.058594 81.023438 62.011719 80.976562 C 61.964844 80.929688 61.929688 80.878906 61.902344 80.816406 C 61.878906 80.753906 61.863281 80.691406 61.863281 80.625 C 61.863281 80.558594 61.878906 80.496094 61.902344 80.433594 C 61.929688 80.371094 61.964844 80.320312 62.011719 80.273438 C 62.058594 80.226562 62.113281 80.1875 62.171875 80.164062 C 62.234375 80.136719 62.296875 80.125 62.363281 80.125 Z M 69.363281 80.125 L 74.363281 80.125 C 74.429688 80.125 74.496094 80.136719 74.554688 80.164062 C 74.617188 80.1875 74.671875 80.226562 74.71875 80.273438 C 74.765625 80.320312 74.800781 80.371094 74.824219 80.433594 C 74.851562 80.496094 74.863281 80.558594 74.863281 80.625 C 74.863281 80.691406 74.851562 80.753906 74.824219 80.816406 C 74.800781 80.878906 74.765625 80.929688 74.71875 80.976562 C 74.671875 81.023438 74.617188 81.0625 74.554688 81.085938 C 74.496094 81.113281 74.429688 81.125 74.363281 81.125 L 69.363281 81.125 C 69.296875 81.125 69.234375 81.113281 69.171875 81.085938 C 69.113281 81.0625 69.058594 81.023438 69.011719 80.976562 C 68.964844 80.929688 68.929688 80.878906 68.902344 80.816406 C 68.878906 80.753906 68.863281 80.691406 68.863281 80.625 C 68.863281 80.558594 68.878906 80.496094 68.902344 80.433594 C 68.929688 80.371094 68.964844 80.320312 69.011719 80.273438 C 69.058594 80.226562 69.113281 80.1875 69.171875 80.164062 C 69.234375 80.136719 69.296875 80.125 69.363281 80.125 Z M 76.363281 80.125 L 81.363281 80.125 C 81.429688 80.125 81.492188 80.136719 81.554688 80.164062 C 81.617188 80.1875 81.671875 80.226562 81.71875 80.273438 C 81.765625 80.320312 81.800781 80.371094 81.824219 80.433594 C 81.851562 80.496094 81.863281 80.558594 81.863281 80.625 C 81.863281 80.691406 81.851562 80.753906 81.824219 80.816406 C 81.800781 80.878906 81.765625 80.929688 81.71875 80.976562 C 81.671875 81.023438 81.617188 81.0625 81.554688 81.085938 C 81.492188 81.113281 81.429688 81.125 81.363281 81.125 L 76.363281 81.125 C 76.296875 81.125 76.234375 81.113281 76.171875 81.085938 C 76.113281 81.0625 76.058594 81.023438 76.011719 80.976562 C 75.964844 80.929688 75.929688 80.878906 75.902344 80.816406 C 75.878906 80.753906 75.863281 80.691406 75.863281 80.625 C 75.863281 80.558594 75.878906 80.496094 75.902344 80.433594 C 75.929688 80.371094 75.964844 80.320312 76.011719 80.273438 C 76.058594 80.226562 76.113281 80.1875 76.171875 80.164062 C 76.234375 80.136719 76.296875 80.125 76.363281 80.125 Z M 83.363281 80.125 L 88.363281 80.125 C 88.429688 80.125 88.496094 80.136719 88.554688 80.164062 C 88.617188 80.1875 88.671875 80.226562 88.71875 80.273438 C 88.765625 80.320312 88.800781 80.371094 88.824219 80.433594 C 88.851562 80.496094 88.863281 80.558594 88.863281 80.625 C 88.863281 80.691406 88.851562 80.753906 88.824219 80.816406 C 88.800781 80.878906 88.765625 80.929688 88.71875 80.976562 C 88.671875 81.023438 88.617188 81.0625 88.554688 81.085938 C 88.496094 81.113281 88.429688 81.125 88.363281 81.125 L 83.363281 81.125 C 83.296875 81.125 83.234375 81.113281 83.171875 81.085938 C 83.113281 81.0625 83.058594 81.023438 83.011719 80.976562 C 82.964844 80.929688 82.929688 80.878906 82.902344 80.816406 C 82.878906 80.753906 82.863281 80.691406 82.863281 80.625 C 82.863281 80.558594 82.878906 80.496094 82.902344 80.433594 C 82.929688 80.371094 82.964844 80.320312 83.011719 80.273438 C 83.058594 80.226562 83.113281 80.1875 83.171875 80.164062 C 83.234375 80.136719 83.296875 80.125 83.363281 80.125 Z M 90.363281 80.125 L 95.179688 80.125 C 95.246094 80.125 95.308594 80.136719 95.371094 80.164062 C 95.429688 80.1875 95.484375 80.226562 95.53125 80.273438 C 95.578125 80.320312 95.617188 80.371094 95.640625 80.433594 C 95.667969 80.496094 95.679688 80.558594 95.679688 80.625 C 95.679688 80.691406 95.667969 80.753906 95.640625 80.816406 C 95.617188 80.878906 95.578125 80.929688 95.53125 80.976562 C 95.484375 81.023438 95.429688 81.0625 95.371094 81.085938 C 95.308594 81.113281 95.246094 81.125 95.179688 81.125 L 90.363281 81.125 C 90.296875 81.125 90.234375 81.113281 90.171875 81.085938 C 90.113281 81.0625 90.058594 81.023438 90.011719 80.976562 C 89.964844 80.929688 89.929688 80.878906 89.902344 80.816406 C 89.878906 80.753906 89.863281 80.691406 89.863281 80.625 C 89.863281 80.558594 89.878906 80.496094 89.902344 80.433594 C 89.929688 80.371094 89.964844 80.320312 90.011719 80.273438 C 90.058594 80.226562 90.113281 80.1875 90.171875 80.164062 C 90.234375 80.136719 90.296875 80.125 90.363281 80.125 Z M 90.363281 80.125 "/>
<path style=" stroke:none;fill-rule:nonzero;fill:rgb(21.960784%,71.372549%,100%);fill-opacity:1;" d="M 68.792969 77.742188 L 70.449219 77.742188 L 70.691406 77.5 L 71.855469 77.5 L 72.195312 77.222656 L 73.050781 77.222656 C 73.234375 77.101562 73.359375 77.039062 73.480469 76.976562 L 74.03125 76.703125 C 74.183594 76.640625 74.398438 76.519531 74.582031 76.457031 C 74.828125 76.394531 74.980469 76.425781 75.164062 76.304688 C 75.316406 76.179688 75.53125 76.152344 75.6875 75.964844 C 75.808594 75.753906 75.992188 75.628906 76.113281 75.445312 C 76.238281 75.324219 76.390625 75.109375 76.484375 75.078125 C 76.820312 75.019531 77.003906 74.710938 77.15625 74.496094 C 77.371094 74.222656 77.707031 74.222656 77.890625 73.976562 C 77.953125 73.914062 78.042969 73.851562 78.074219 73.792969 C 78.167969 73.273438 78.625 72.996094 78.902344 72.597656 C 78.933594 72.507812 78.964844 72.445312 78.933594 72.261719 C 79.332031 72.167969 79.667969 71.984375 79.730469 71.433594 C 79.730469 71.402344 79.789062 71.371094 79.820312 71.339844 C 80.066406 71.097656 80.25 70.882812 80.464844 70.636719 C 80.433594 70.300781 80.769531 70.148438 80.832031 69.808594 C 80.371094 69.351562 80.28125 69.351562 79.605469 69.351562 C 79.421875 69.71875 79.238281 69.71875 79.023438 69.992188 C 78.902344 70.117188 78.71875 70.394531 78.441406 70.699219 C 78.382812 70.789062 78.074219 71.097656 77.984375 71.1875 C 77.828125 71.433594 77.707031 71.648438 77.585938 71.769531 C 77.1875 72.136719 76.878906 72.292969 76.667969 72.566406 C 76.542969 72.660156 76.328125 72.71875 76.269531 72.8125 C 76.054688 73.058594 75.992188 73.273438 75.65625 73.546875 L 75.257812 73.851562 C 74.828125 74.40625 74.429688 74.589844 74.15625 74.773438 C 73.816406 74.804688 73.632812 75.171875 73.328125 75.292969 C 73.019531 75.414062 72.347656 75.84375 72.011719 75.660156 C 71.886719 75.785156 71.734375 75.875 71.582031 75.996094 L 71.246094 75.660156 L 70.539062 75.660156 C 70.570312 75.570312 70.539062 75.445312 70.507812 75.140625 C 70.386719 75.019531 70.140625 74.773438 69.925781 74.527344 C 69.925781 74.128906 69.835938 73.824219 69.925781 73.425781 C 69.589844 73.210938 70.050781 72.628906 69.652344 72.414062 L 69.835938 71.527344 C 69.773438 71.1875 69.742188 71.035156 69.683594 70.914062 C 69.867188 70.789062 69.925781 70.699219 70.019531 70.605469 C 69.957031 70.515625 69.894531 70.421875 69.867188 70.300781 C 69.773438 69.777344 69.867188 69.257812 69.957031 68.769531 C 69.867188 68.675781 69.835938 68.585938 69.804688 68.492188 C 69.894531 68.433594 69.925781 68.371094 70.082031 68.246094 C 70.203125 67.664062 70.324219 67.023438 70.417969 66.441406 C 70.539062 66.320312 70.632812 66.257812 70.660156 66.195312 C 70.816406 65.644531 70.660156 65.03125 70.816406 64.542969 L 71.0625 64.296875 C 71.03125 64.207031 70.96875 64.113281 70.875 64.019531 C 71 63.929688 71.0625 63.835938 71.183594 63.746094 C 71.457031 62.457031 71.886719 61.203125 72.132812 59.917969 C 72.195312 59.855469 72.285156 59.792969 72.40625 59.671875 C 72.46875 59.363281 72.5625 58.964844 72.59375 58.660156 C 72.777344 58.507812 72.835938 58.414062 72.929688 58.292969 C 73.050781 57.710938 73.359375 57.097656 73.480469 56.515625 C 73.574219 56.425781 73.601562 56.363281 73.695312 56.300781 L 73.878906 55.289062 C 74 55.199219 74.09375 55.074219 74.214844 54.984375 C 74.246094 54.769531 74.246094 54.523438 74.460938 54.28125 C 74.675781 54.128906 74.707031 53.820312 74.949219 53.667969 C 74.921875 53.332031 75.316406 53.207031 75.347656 52.871094 C 75.441406 52.65625 75.65625 52.472656 75.839844 52.257812 C 75.902344 52.257812 75.992188 52.289062 76.054688 52.226562 C 76.328125 51.953125 76.636719 51.828125 76.847656 52.136719 C 77.003906 52.289062 77.308594 52.226562 77.371094 52.503906 C 77.464844 52.75 77.523438 52.992188 77.585938 53.300781 C 77.554688 53.574219 77.492188 53.914062 77.433594 54.21875 C 77.464844 54.308594 77.523438 54.371094 77.617188 54.464844 C 77.554688 54.710938 77.523438 54.953125 77.464844 55.199219 C 77.492188 55.320312 77.585938 55.414062 77.617188 55.503906 L 77.523438 55.964844 C 77.921875 56.484375 78.257812 56.976562 78.597656 57.464844 L 79.269531 57.464844 C 79.390625 57.3125 79.578125 57.191406 79.667969 57.066406 C 79.699219 56.824219 79.761719 56.546875 79.820312 56.300781 C 79.941406 56.210938 80.035156 56.117188 80.097656 56.027344 C 80.25 55.320312 80.371094 54.617188 80.527344 53.820312 C 80.402344 53.730469 80.25 53.574219 80.128906 53.453125 C 80.34375 52.933594 79.941406 52.625 80.15625 52.167969 C 80.003906 51.890625 79.789062 51.617188 79.605469 51.339844 C 79.699219 50.878906 79.332031 50.726562 79.207031 50.449219 L 78.625 50.449219 C 78.535156 50.269531 78.472656 50.082031 78.382812 49.867188 C 77.769531 50.082031 77.464844 49.59375 76.941406 49.59375 C 76.910156 49.59375 76.878906 49.472656 76.820312 49.410156 L 74.980469 49.410156 L 74.183594 49.839844 C 73.910156 50.023438 73.574219 49.808594 73.328125 50.175781 C 73.265625 50.238281 73.050781 50.175781 72.929688 50.175781 C 72.5 50.542969 72.132812 50.878906 71.765625 51.214844 L 71.582031 51.214844 C 70.9375 51.523438 70.722656 52.167969 70.265625 52.597656 C 70.050781 52.808594 69.988281 53.207031 69.742188 53.453125 C 69.621094 53.636719 69.5 53.820312 69.40625 54.003906 C 69.253906 54.21875 68.976562 54.308594 68.855469 54.585938 C 68.734375 54.863281 68.609375 55.167969 68.394531 55.351562 C 68.089844 55.597656 68.242188 55.902344 67.996094 56.148438 C 67.78125 56.363281 67.539062 56.636719 67.507812 56.882812 C 67.445312 57.34375 66.988281 57.617188 67.046875 58.078125 C 66.925781 58.167969 66.832031 58.292969 66.742188 58.382812 C 66.679688 58.628906 66.648438 58.875 66.589844 59.148438 C 66.496094 59.242188 66.40625 59.335938 66.28125 59.425781 L 66.007812 60.957031 L 65.699219 61.265625 C 65.578125 61.96875 65.425781 62.644531 65.300781 63.316406 C 65.210938 63.410156 65.148438 63.46875 65.027344 63.5625 L 64.382812 66.960938 C 64.445312 67.085938 64.535156 67.175781 64.597656 67.300781 C 64.445312 67.972656 64.292969 68.675781 64.167969 69.320312 C 64.261719 69.414062 64.320312 69.472656 64.351562 69.535156 L 64.078125 70.820312 C 64.136719 70.945312 64.230469 71.035156 64.292969 71.128906 L 64.199219 71.617188 C 64.230469 71.738281 64.292969 71.832031 64.382812 71.925781 L 64.292969 72.414062 C 64.351562 72.535156 64.382812 72.628906 64.414062 72.660156 C 64.472656 72.902344 64.320312 73.117188 64.414062 73.332031 C 64.535156 73.609375 64.597656 73.882812 64.78125 74.128906 C 64.875 74.34375 64.875 74.648438 65.027344 74.863281 C 65.210938 75.078125 65.148438 75.445312 65.363281 75.660156 C 65.609375 75.875 65.699219 76.242188 65.945312 76.367188 C 66.25 76.519531 66.375 76.734375 66.558594 76.945312 C 66.832031 76.855469 66.863281 77.222656 67.078125 77.222656 L 67.691406 77.222656 C 67.78125 77.316406 67.8125 77.40625 67.90625 77.5 L 68.578125 77.5 C 68.640625 77.589844 68.734375 77.683594 68.792969 77.742188 Z M 68.792969 77.742188 "/>
<path style=" stroke:none;fill-rule:nonzero;fill:rgb(21.960784%,71.372549%,100%);fill-opacity:1;" d="M 89.039062 55.503906 L 89.160156 55.902344 C 89.40625 55.902344 90.570312 55.964844 90.816406 55.84375 L 90.816406 54.832031 C 90.632812 54.496094 90.386719 54.21875 90.355469 53.941406 C 90.292969 53.542969 89.835938 53.515625 89.835938 53.148438 C 89.835938 52.777344 89.34375 52.71875 89.285156 52.351562 C 89.222656 51.980469 88.703125 51.828125 88.609375 51.492188 C 88.519531 51.15625 88.304688 50.941406 88.027344 50.726562 C 87.8125 50.511719 87.660156 50.207031 87.324219 50.082031 C 87.230469 50.113281 86.160156 50.144531 86.097656 50.175781 C 86.191406 50.390625 86.28125 50.636719 86.34375 50.941406 C 86.375 51.125 86.496094 51.371094 86.617188 51.554688 C 86.832031 51.769531 86.773438 52.105469 87.046875 52.257812 L 87.046875 52.75 C 87.382812 53.117188 87.785156 53.390625 87.9375 53.914062 C 88.210938 54.554688 88.519531 55.136719 89.039062 55.503906 Z M 91.398438 77.285156 L 91.734375 76.976562 L 92.777344 76.976562 C 92.992188 76.734375 93.203125 76.457031 93.355469 76.304688 L 93.847656 76.152344 C 93.847656 76.058594 94.460938 75.199219 94.492188 75.109375 C 94.675781 74.925781 94.890625 74.558594 95.105469 74.34375 C 95.289062 74.128906 95.378906 73.792969 95.683594 73.640625 C 96.023438 73.363281 95.960938 72.964844 96.328125 72.566406 C 96.511719 72.320312 96.789062 71.648438 96.972656 71.527344 C 97.003906 71.464844 97.371094 70.515625 97.492188 70.546875 C 97.832031 69.808594 97.402344 69.566406 96.910156 69.414062 C 96.390625 69.414062 96.511719 70.054688 95.929688 70.757812 C 95.378906 71.371094 94.917969 72.167969 94.890625 72.199219 C 94.644531 72.71875 94.03125 73.546875 93.726562 73.945312 C 93.386719 74.375 92.929688 75.046875 92.46875 75.046875 C 92.347656 75.230469 91.824219 75.046875 91.613281 74.925781 L 91.613281 71.066406 C 91.703125 71.003906 91.765625 70.972656 91.855469 70.851562 L 91.855469 69.136719 C 92.039062 68.921875 92.222656 68.769531 92.347656 68.644531 L 92.347656 67.878906 C 92.4375 67.789062 92.53125 67.695312 92.589844 67.605469 L 92.589844 67.144531 L 92.867188 66.839844 L 92.867188 65.613281 C 93.050781 65.308594 93.570312 63.746094 93.601562 63.410156 C 93.664062 63.316406 93.757812 63.195312 93.847656 63.101562 L 93.847656 61.90625 C 94.03125 61.722656 94.183594 61.507812 94.335938 61.386719 L 94.335938 59.640625 C 94.03125 59.363281 94.09375 58.90625 93.664062 58.753906 L 93.050781 58.753906 L 92.316406 58.015625 L 91.949219 58.015625 C 91.796875 57.617188 91.304688 57.558594 91 57.28125 L 90.355469 57.617188 L 90.355469 57.957031 C 90.476562 58.078125 90.691406 58.199219 90.847656 58.324219 C 90.539062 58.785156 90.324219 59.210938 90.292969 59.703125 C 90.171875 59.824219 89.988281 59.976562 89.867188 60.128906 C 89.867188 60.34375 89.925781 60.34375 89.925781 60.558594 C 89.925781 60.710938 89.925781 60.710938 89.867188 60.742188 C 89.710938 60.804688 89.589844 60.898438 89.46875 60.957031 C 89.222656 60.804688 88.457031 60.683594 88.210938 60.496094 L 87.078125 60.496094 C 86.679688 60.496094 86.25 60.40625 85.945312 60.773438 C 84.933594 61.019531 84.535156 61.265625 83.984375 61.785156 C 83.679688 62.089844 83.402344 62.398438 82.972656 62.613281 C 82.605469 62.796875 82.390625 63.195312 82.054688 63.46875 C 81.746094 63.683594 81.746094 64.082031 81.441406 64.359375 C 81.503906 64.785156 80.859375 64.910156 80.890625 65.339844 C 80.554688 65.738281 80.402344 66.226562 80.1875 66.683594 C 79.941406 67.144531 79.605469 67.605469 79.605469 68.1875 C 79.605469 68.246094 79.480469 68.308594 79.421875 68.371094 L 79.421875 68.859375 C 79.328125 68.921875 79.238281 69.011719 79.175781 69.136719 L 79.175781 69.871094 C 79.082031 69.964844 78.960938 70.023438 78.898438 70.117188 L 78.898438 71.894531 C 78.839844 71.953125 78.777344 71.984375 78.683594 72.078125 L 78.683594 74.621094 C 79.082031 75.019531 79.113281 75.570312 79.449219 75.9375 C 79.847656 76.335938 80.0625 76.273438 80.429688 76.671875 C 80.585938 76.671875 81.011719 77.007812 81.257812 77.007812 C 81.382812 77.160156 82.085938 77.101562 82.238281 77.222656 C 82.363281 77.222656 82.453125 77.253906 82.515625 77.222656 C 82.882812 77.160156 83.15625 76.945312 83.523438 76.917969 C 83.707031 76.886719 83.921875 76.703125 84.105469 76.582031 C 84.105469 76.519531 84.105469 76.394531 84.136719 76.335938 C 84.476562 76.027344 84.78125 75.691406 85.117188 75.355469 C 85.363281 75.140625 85.609375 74.925781 85.792969 74.648438 C 85.976562 74.40625 86.007812 74.066406 86.160156 73.792969 C 86.433594 73.425781 86.589844 72.933594 87.078125 72.71875 C 87.140625 72.75 87.230469 72.8125 87.324219 72.8125 C 87.324219 73.085938 87.355469 73.363281 87.355469 73.609375 C 87.476562 73.730469 87.570312 73.792969 87.628906 73.945312 L 87.628906 74.621094 C 87.785156 74.804688 88.058594 74.957031 88.089844 75.109375 C 88.121094 75.507812 88.457031 75.601562 88.609375 75.875 C 88.824219 76.242188 89.253906 76.179688 89.46875 76.457031 C 89.742188 76.425781 89.867188 76.640625 89.988281 76.761719 C 90.109375 76.824219 90.203125 76.917969 90.292969 76.976562 L 90.90625 76.976562 C 91.121094 77.132812 91.273438 77.191406 91.398438 77.285156 Z M 82.757812 74.988281 L 82.238281 74.988281 C 82.207031 74.925781 82.117188 74.832031 82.117188 74.773438 C 82.085938 74.066406 82.117188 73.300781 82.117188 72.597656 C 82.238281 72.507812 82.300781 72.445312 82.363281 72.382812 L 82.363281 71.160156 C 82.421875 71.066406 82.515625 70.972656 82.605469 70.882812 L 82.605469 70.394531 C 82.667969 70.300781 82.789062 70.207031 82.882812 70.085938 L 82.882812 69.441406 C 83.035156 69.136719 83.1875 68.832031 83.371094 68.585938 L 83.371094 67.910156 C 83.433594 67.851562 83.496094 67.757812 83.554688 67.664062 C 83.769531 67.328125 83.800781 66.898438 84.074219 66.65625 C 84.015625 66.195312 84.535156 66.105469 84.628906 65.738281 C 84.71875 65.308594 85.148438 65.125 85.425781 64.816406 L 85.609375 64.542969 C 85.699219 64.296875 85.792969 64.113281 86.007812 63.714844 C 86.066406 63.652344 86.28125 63.5 86.464844 63.253906 C 86.648438 62.980469 87.046875 63.011719 87.261719 62.765625 C 87.414062 62.550781 87.722656 62.457031 87.996094 62.273438 L 88.976562 62.273438 C 89.101562 62.367188 89.101562 62.367188 88.855469 62.644531 C 89.007812 63.070312 88.519531 63.378906 88.609375 63.777344 C 88.425781 64.082031 88.273438 64.417969 88.089844 64.757812 L 88.335938 65.152344 L 88.335938 65.613281 C 88.273438 65.707031 88.210938 65.765625 88.121094 65.859375 L 88.121094 66.871094 C 88.027344 66.929688 87.9375 67.054688 87.84375 67.144531 L 87.84375 68.644531 C 87.628906 68.859375 87.355469 69.074219 87.140625 69.351562 L 87.140625 69.777344 C 87.015625 70.117188 86.558594 70.207031 86.617188 70.605469 C 86.433594 70.851562 86.066406 71.003906 86.097656 71.402344 C 85.824219 71.617188 85.609375 71.863281 85.394531 72.078125 C 85.425781 72.476562 85.054688 72.628906 84.871094 72.871094 C 84.628906 73.117188 84.382812 73.363281 84.136719 73.578125 L 83.433594 74.28125 C 83.1875 74.527344 82.972656 74.742188 82.757812 74.988281 Z M 82.757812 74.988281 "/>
</g>
</svg>
